<svg width="36" height="36" viewBox="0 0 36 36" fill="none" xmlns="http://www.w3.org/2000/svg">
<g clip-path="url(#clip0_14_194)">
<path d="M35.4604 22.3567C33.0577 31.9986 23.2891 37.8669 13.6444 35.4607C3.9996 33.0545 -1.86606 23.2907 0.540364 13.6479C2.94678 4.00516 12.7105 -1.8659 22.3531 0.540701C31.9957 2.9473 37.8668 12.7116 35.4604 22.3567Z" fill="#F7931A"/>
<path d="M25.0678 13.2945C24.7935 10.8882 22.6986 10.1164 20.0672 9.93222L20.0098 6.58863L17.9741 6.62462L18.0295 9.88039C17.495 9.88982 16.9482 9.90924 16.4053 9.93025L16.3472 6.65356L14.3134 6.68904L14.3727 10.0308L10.2693 10.1087L10.3076 12.2827C10.3076 12.2827 11.8102 12.2278 11.7857 12.256C12.61 12.2419 12.8872 12.7155 12.9721 13.1273L13.1316 22.2866C13.0999 22.5466 12.9547 22.9627 12.3786 22.9728C12.4051 22.9955 10.8986 22.9967 10.8986 22.9967L10.5374 25.4376L14.6398 25.3782L14.6997 28.7602L16.7326 28.725L16.6746 25.379C17.234 25.3804 17.7732 25.3757 18.3002 25.366L18.3574 28.6966L20.3928 28.6607L20.3346 25.2847C23.7531 25.0284 26.1332 24.1246 26.3738 20.9086C26.5687 18.3173 25.3321 17.1839 23.3814 16.7511C24.5506 16.1284 25.2699 15.0572 25.0665 13.2961L25.0678 13.2945ZM22.3452 20.5759C22.3888 23.1032 18.0581 22.8915 16.678 22.9165L16.6004 18.4361C17.9801 18.4122 22.2983 17.9402 22.3458 20.5753L22.3452 20.5759ZM21.2901 14.2707C21.3298 16.5708 17.716 16.3652 16.5663 16.3851L16.494 12.3208C17.6441 12.3011 21.2472 11.8727 21.2886 14.2709" fill="white"/>
</g>
<defs>
<clipPath id="clip0_14_194">
<rect width="36" height="36" fill="white"/>
</clipPath>
</defs>
</svg>
