<svg width="30" height="30" viewBox="0 0 30 30" fill="none" xmlns="http://www.w3.org/2000/svg">
<path d="M21.8726 17.9775C21.4996 17.7913 19.6646 16.8938 19.323 16.7688C18.9801 16.645 18.7314 16.5838 18.4815 16.9563C18.2341 17.3275 17.5182 18.1638 17.3009 18.4113C17.0836 18.66 16.8651 18.69 16.492 18.505C16.119 18.3175 14.9158 17.9263 13.4903 16.6613C12.3813 15.6763 11.6315 14.46 11.4142 14.0875C11.1969 13.7163 11.3916 13.515 11.5775 13.33C11.7458 13.1638 11.9517 12.8963 12.1376 12.68C12.3248 12.4625 12.3863 12.3075 12.5119 12.0588C12.6362 11.8113 12.5747 11.595 12.4805 11.4088C12.3863 11.2225 11.6403 9.39379 11.33 8.65004C11.0261 7.92629 10.7184 8.02504 10.4898 8.01254C10.2725 8.00254 10.0238 8.00004 9.7739 8.00004C9.52522 8.00004 9.1208 8.09254 8.77918 8.46504C8.43756 8.83629 7.47298 9.73504 7.47298 11.5638C7.47298 13.3913 8.81058 15.1575 8.99646 15.4063C9.1836 15.6538 11.629 19.4063 15.373 21.015C16.2635 21.3975 16.958 21.6263 17.5006 21.7963C18.3948 22.08 19.2087 22.04 19.8505 21.9438C20.5676 21.8375 22.0585 21.045 22.37 20.1775C22.6814 19.31 22.6814 18.5663 22.5872 18.4113C22.4943 18.2563 22.2456 18.1638 21.8713 17.9775H21.8726ZM15.0628 27.2313H15.0577C12.8344 27.2314 10.6519 26.6365 8.73899 25.5088L8.28559 25.2413L3.58703 26.4688L4.84048 21.9088L4.54533 21.4413C3.30248 19.4716 2.64498 17.1921 2.64883 14.8663C2.65008 8.05379 8.22028 2.5113 15.0678 2.5113C18.3835 2.5113 21.5008 3.7988 23.8445 6.13379C25.0008 7.27956 25.9173 8.6422 26.541 10.1428C27.1647 11.6435 27.4832 13.2523 27.478 14.8763C27.4742 21.6888 21.9052 27.2313 15.0628 27.2313V27.2313ZM25.6292 4.36004C24.2453 2.9737 22.5988 1.87447 20.785 1.12605C18.9712 0.37763 17.0263 -0.0050953 15.0628 5.12219e-05C6.82993 5.12219e-05 0.129364 6.66879 0.125596 14.865C0.125596 17.485 0.812608 20.0425 2.12007 22.2963L0 30L7.91885 27.9325C10.1087 29.1199 12.5627 29.7422 15.0565 29.7425H15.0628C23.2943 29.7425 29.9962 23.0738 29.9999 14.8763C30.006 12.9229 29.6228 10.9877 28.8726 9.18258C28.1224 7.3775 27.02 5.73838 25.6292 4.36004V4.36004Z" fill="url(#paint0_linear)"/>
<defs>
<linearGradient id="paint0_linear" x1="15" y1="0" x2="15" y2="30" gradientUnits="userSpaceOnUse">
<stop stop-color="#fff"/>
<!-- <stop offset="1" stop-color="#fff" stop-opacity="0"/> -->
</linearGradient>
</defs>
</svg>
