<svg width="333" height="263" viewBox="0 0 333 263" fill="none" xmlns="http://www.w3.org/2000/svg">
<g clip-path="url(#clip0_221_799)" filter="url(#filter0_d_221_799)">
<rect x="64" y="40" width="205" height="135" rx="16" fill="url(#paint0_linear_221_799)"/>
<g opacity="0.1" clip-path="url(#clip1_221_799)">
<path d="M125.992 159.906C133.25 154.14 134.46 143.581 128.694 136.323C122.927 129.064 112.369 127.854 105.11 133.621C97.8515 139.387 96.6418 149.946 102.408 157.204C108.174 164.463 118.733 165.673 125.992 159.906Z" fill="white"/>
<path d="M139.47 176.872C121.013 191.535 103.159 202.174 87.8033 207.625C77.8538 211.174 68.3753 212.896 60.4127 212.602C51.9751 212.302 45.5817 209.737 41.9835 205.208C35.0784 196.516 37.8488 180.436 49.436 162.178C58.9075 147.223 73.96 131.123 91.8154 116.939C109.357 103.004 128.146 92.0913 144.735 86.2576C154.434 82.8233 163.552 81.1312 171.102 81.2823C179.337 81.4879 185.553 83.9374 189.068 88.362C196.243 97.3944 192.846 114.996 180.185 134.322C171.24 148.004 156.776 163.124 139.47 176.872ZM96.8332 123.201C79.8941 136.658 65.0934 152.43 56.2309 166.431C45.5938 183.251 44.5702 195.509 48.2931 200.195C52.1617 205.065 65.3506 207.1 85.1242 200.06C99.638 194.893 116.728 184.69 134.478 170.589C151.129 157.361 164.991 142.933 173.479 129.912C185.369 111.712 186.658 98.1762 182.811 93.3328C180.835 90.8456 176.62 89.4108 170.923 89.2817C164.35 89.1235 156.198 90.6884 147.42 93.7759C131.667 99.3723 113.694 109.807 96.8332 123.201Z" fill="white"/>
<path d="M137.769 235.958C135.099 238.079 132.285 239.375 129.38 239.804C118.413 241.427 105.854 230.993 95.8144 211.851C87.5703 196.152 81.1774 175.096 77.8131 152.531C74.5206 130.378 74.4381 108.665 77.6564 91.3756C79.5291 81.2618 82.6034 72.4993 86.5315 66.048C90.8114 59.0181 96.0476 54.8584 101.617 54.021C113.022 52.3054 126.596 64.0699 136.99 84.6799C144.382 99.3058 150.245 119.373 153.523 141.238C156.995 164.53 157.279 185.314 154.347 201.351C152.442 211.747 149.189 220.822 144.967 227.549C142.778 231.082 140.335 233.92 137.769 235.958ZM81.7577 151.959L85.7284 151.367C88.9192 172.746 95.1618 193.452 102.903 208.142C112.164 225.766 122.286 232.756 128.169 231.883C129.622 231.669 131.18 230.943 132.777 229.675C137.987 225.536 143.561 215.727 146.467 199.925C149.249 184.775 148.936 164.868 145.603 142.449C142.468 121.409 136.863 102.204 129.86 88.3371C120.041 68.9353 108.972 61.0749 102.822 61.9887C99.6979 62.4637 96.3406 65.3869 93.3788 70.2594C89.9496 75.8874 87.244 83.7163 85.5521 92.8751C82.5039 109.303 82.5739 130.087 85.7492 151.393L81.7577 151.959Z" fill="white"/>
<path d="M197.472 188.657C190.351 194.315 177.907 197.196 162.035 196.568C144.314 195.87 122.894 190.894 101.649 182.534C80.7888 174.337 61.9639 163.542 48.5668 152.107C40.7409 145.427 34.6918 138.404 31.0486 131.775C27.0941 124.54 26.0879 117.952 28.1686 112.669C32.3724 101.942 49.3482 96.0569 72.4041 97.3419C88.7458 98.2384 109.074 103.185 129.636 111.276C151.565 119.905 169.729 130.03 182.132 140.589C190.177 147.436 196.428 154.768 200.169 161.789C204.144 169.265 205.102 176.062 202.985 181.459C201.936 184.171 200.064 186.598 197.472 188.657ZM104.598 175.066C124.728 182.989 145.798 187.901 162.36 188.538C182.237 189.316 193.357 184.069 195.543 178.489C197.824 172.706 192.989 160.276 176.983 146.686C165.226 136.724 147.844 127.046 126.733 118.75C106.922 110.959 87.4757 106.208 71.985 105.361C50.2762 104.159 37.9434 109.814 35.6626 115.598C34.4933 118.534 35.3713 122.918 38.1062 127.92C41.2771 133.685 46.697 139.97 53.7887 145.994C66.5141 156.852 84.5365 167.175 104.598 175.066Z" fill="white"/>
</g>
<path d="M87.54 80.393C88.268 80.393 88.9093 80.3063 89.464 80.133C90.0273 79.951 90.4953 79.6997 90.868 79.379C91.2493 79.0497 91.5353 78.6597 91.726 78.209C91.9167 77.7583 92.012 77.26 92.012 76.714C92.012 75.6047 91.648 74.7683 90.92 74.205C90.192 73.6417 89.1 73.36 87.644 73.36H84.888V80.393H87.54ZM96.146 90H93.91C93.4507 90 93.1127 89.8223 92.896 89.467L88.06 82.811C87.9127 82.603 87.7523 82.4557 87.579 82.369C87.4143 82.2737 87.1543 82.226 86.799 82.226H84.888V90H82.379V71.371H87.644C88.8227 71.371 89.841 71.4923 90.699 71.735C91.557 71.969 92.2633 72.3113 92.818 72.762C93.3813 73.2127 93.7973 73.7587 94.066 74.4C94.3347 75.0327 94.469 75.7433 94.469 76.532C94.469 77.1907 94.365 77.806 94.157 78.378C93.949 78.95 93.6457 79.4657 93.247 79.925C92.857 80.3757 92.376 80.7613 91.804 81.082C91.2407 81.4027 90.5993 81.6453 89.88 81.81C90.2007 81.992 90.478 82.2563 90.712 82.603L96.146 90ZM106.11 81.979C106.11 81.4417 106.032 80.952 105.876 80.51C105.729 80.0593 105.508 79.6737 105.213 79.353C104.927 79.0237 104.576 78.7723 104.16 78.599C103.744 78.417 103.272 78.326 102.743 78.326C101.634 78.326 100.754 78.651 100.104 79.301C99.4626 79.9423 99.0639 80.835 98.9079 81.979H106.11ZM107.982 88.154C107.696 88.5007 107.354 88.804 106.955 89.064C106.556 89.3153 106.127 89.5233 105.668 89.688C105.217 89.8527 104.749 89.974 104.264 90.052C103.779 90.1387 103.298 90.182 102.821 90.182C101.911 90.182 101.07 90.0303 100.299 89.727C99.5362 89.415 98.8732 88.9643 98.3099 88.375C97.7552 87.777 97.3219 87.0403 97.0099 86.165C96.6979 85.2897 96.5419 84.2843 96.5419 83.149C96.5419 82.2303 96.6806 81.3723 96.9579 80.575C97.2439 79.7777 97.6512 79.0887 98.1799 78.508C98.7086 77.9187 99.3542 77.4593 100.117 77.13C100.88 76.792 101.738 76.623 102.691 76.623C103.48 76.623 104.208 76.7573 104.875 77.026C105.551 77.286 106.132 77.6673 106.617 78.17C107.111 78.664 107.497 79.2793 107.774 80.016C108.051 80.744 108.19 81.576 108.19 82.512C108.19 82.876 108.151 83.1187 108.073 83.24C107.995 83.3613 107.848 83.422 107.631 83.422H98.8299C98.8559 84.254 98.9686 84.9777 99.1679 85.593C99.3759 86.2083 99.6619 86.724 100.026 87.14C100.39 87.5473 100.823 87.855 101.326 88.063C101.829 88.2623 102.392 88.362 103.016 88.362C103.597 88.362 104.095 88.297 104.511 88.167C104.936 88.0283 105.3 87.881 105.603 87.725C105.906 87.569 106.158 87.426 106.357 87.296C106.565 87.1573 106.743 87.088 106.89 87.088C107.081 87.088 107.228 87.1617 107.332 87.309L107.982 88.154ZM118.169 84.072C117.103 84.1067 116.193 84.1933 115.439 84.332C114.694 84.462 114.083 84.6353 113.606 84.852C113.138 85.0687 112.796 85.3243 112.579 85.619C112.371 85.9137 112.267 86.243 112.267 86.607C112.267 86.9537 112.324 87.2527 112.436 87.504C112.549 87.7553 112.701 87.9633 112.891 88.128C113.091 88.284 113.32 88.401 113.58 88.479C113.849 88.5483 114.135 88.583 114.438 88.583C114.846 88.583 115.218 88.544 115.556 88.466C115.894 88.3793 116.211 88.258 116.505 88.102C116.809 87.946 117.095 87.7597 117.363 87.543C117.641 87.3263 117.909 87.0793 118.169 86.802V84.072ZM110.694 78.69C111.422 77.988 112.207 77.4637 113.047 77.117C113.888 76.7703 114.82 76.597 115.842 76.597C116.579 76.597 117.233 76.7183 117.805 76.961C118.377 77.2037 118.858 77.5417 119.248 77.975C119.638 78.4083 119.933 78.9327 120.132 79.548C120.332 80.1633 120.431 80.8393 120.431 81.576V90H119.404C119.179 90 119.006 89.9653 118.884 89.896C118.763 89.818 118.668 89.6707 118.598 89.454L118.338 88.206C117.992 88.5267 117.654 88.8127 117.324 89.064C116.995 89.3067 116.648 89.5147 116.284 89.688C115.92 89.8527 115.53 89.9783 115.114 90.065C114.707 90.1603 114.252 90.208 113.749 90.208C113.238 90.208 112.757 90.1387 112.306 90C111.856 89.8527 111.461 89.636 111.123 89.35C110.794 89.064 110.53 88.7043 110.33 88.271C110.14 87.829 110.044 87.309 110.044 86.711C110.044 86.191 110.187 85.6927 110.473 85.216C110.759 84.7307 111.223 84.3017 111.864 83.929C112.506 83.5563 113.342 83.253 114.373 83.019C115.405 82.7763 116.67 82.6377 118.169 82.603V81.576C118.169 80.5533 117.948 79.782 117.506 79.262C117.064 78.7333 116.419 78.469 115.569 78.469C114.997 78.469 114.516 78.5427 114.126 78.69C113.745 78.8287 113.411 78.989 113.125 79.171C112.848 79.3443 112.605 79.5047 112.397 79.652C112.198 79.7907 111.999 79.86 111.799 79.86C111.643 79.86 111.509 79.821 111.396 79.743C111.284 79.6563 111.188 79.5523 111.11 79.431L110.694 78.69ZM133.121 79.171C133.052 79.2663 132.982 79.34 132.913 79.392C132.844 79.444 132.748 79.47 132.627 79.47C132.497 79.47 132.354 79.418 132.198 79.314C132.042 79.2013 131.847 79.08 131.613 78.95C131.388 78.82 131.106 78.703 130.768 78.599C130.439 78.4863 130.031 78.43 129.546 78.43C128.896 78.43 128.324 78.547 127.83 78.781C127.336 79.0063 126.92 79.3357 126.582 79.769C126.253 80.2023 126.001 80.7267 125.828 81.342C125.663 81.9573 125.581 82.6463 125.581 83.409C125.581 84.2063 125.672 84.917 125.854 85.541C126.036 86.1563 126.292 86.6763 126.621 87.101C126.959 87.517 127.362 87.8377 127.83 88.063C128.307 88.2797 128.84 88.388 129.429 88.388C129.992 88.388 130.456 88.323 130.82 88.193C131.184 88.0543 131.483 87.9027 131.717 87.738C131.96 87.5733 132.159 87.426 132.315 87.296C132.48 87.1573 132.64 87.088 132.796 87.088C132.987 87.088 133.134 87.1617 133.238 87.309L133.888 88.154C133.602 88.5093 133.277 88.8127 132.913 89.064C132.549 89.3153 132.155 89.5277 131.73 89.701C131.314 89.8657 130.876 89.987 130.417 90.065C129.958 90.143 129.49 90.182 129.013 90.182C128.19 90.182 127.423 90.0303 126.712 89.727C126.01 89.4237 125.399 88.986 124.879 88.414C124.359 87.8333 123.952 87.1227 123.657 86.282C123.362 85.4413 123.215 84.4837 123.215 83.409C123.215 82.4297 123.349 81.524 123.618 80.692C123.895 79.86 124.294 79.145 124.814 78.547C125.343 77.9403 125.988 77.468 126.751 77.13C127.522 76.792 128.406 76.623 129.403 76.623C130.33 76.623 131.145 76.7747 131.847 77.078C132.558 77.3727 133.186 77.793 133.732 78.339L133.121 79.171ZM140.415 90.208C139.375 90.208 138.573 89.9177 138.01 89.337C137.455 88.7563 137.178 87.92 137.178 86.828V78.768H135.592C135.453 78.768 135.336 78.729 135.241 78.651C135.146 78.5643 135.098 78.4343 135.098 78.261V77.338L137.256 77.065L137.789 72.996C137.815 72.866 137.871 72.762 137.958 72.684C138.053 72.5973 138.175 72.554 138.322 72.554H139.492V77.091H143.301V78.768H139.492V86.672C139.492 87.2267 139.626 87.6383 139.895 87.907C140.164 88.1757 140.51 88.31 140.935 88.31C141.178 88.31 141.386 88.2797 141.559 88.219C141.741 88.1497 141.897 88.076 142.027 87.998C142.157 87.92 142.265 87.8507 142.352 87.79C142.447 87.7207 142.53 87.686 142.599 87.686C142.72 87.686 142.829 87.7597 142.924 87.907L143.6 89.012C143.201 89.3847 142.72 89.6793 142.157 89.896C141.594 90.104 141.013 90.208 140.415 90.208ZM152.135 81.225H158.557V83.188H152.135V81.225ZM180.999 73.49H174.967V90H172.458V73.49H166.413V71.371H180.999V73.49ZM185.316 78.586C185.88 77.988 186.504 77.5113 187.188 77.156C187.873 76.8007 188.662 76.623 189.554 76.623C190.274 76.623 190.906 76.7443 191.452 76.987C192.007 77.221 192.466 77.559 192.83 78.001C193.203 78.4343 193.485 78.9587 193.675 79.574C193.866 80.1893 193.961 80.8697 193.961 81.615V90H191.634V81.615C191.634 80.6183 191.405 79.847 190.945 79.301C190.495 78.7463 189.806 78.469 188.878 78.469C188.194 78.469 187.552 78.6337 186.954 78.963C186.365 79.2923 185.819 79.7387 185.316 80.302V90H182.989V70.851H185.316V78.586ZM206.301 81.979C206.301 81.4417 206.223 80.952 206.067 80.51C205.92 80.0593 205.699 79.6737 205.404 79.353C205.118 79.0237 204.767 78.7723 204.351 78.599C203.935 78.417 203.463 78.326 202.934 78.326C201.825 78.326 200.945 78.651 200.295 79.301C199.654 79.9423 199.255 80.835 199.099 81.979H206.301ZM208.173 88.154C207.887 88.5007 207.545 88.804 207.146 89.064C206.748 89.3153 206.319 89.5233 205.859 89.688C205.409 89.8527 204.941 89.974 204.455 90.052C203.97 90.1387 203.489 90.182 203.012 90.182C202.102 90.182 201.262 90.0303 200.49 89.727C199.728 89.415 199.065 88.9643 198.501 88.375C197.947 87.777 197.513 87.0403 197.201 86.165C196.889 85.2897 196.733 84.2843 196.733 83.149C196.733 82.2303 196.872 81.3723 197.149 80.575C197.435 79.7777 197.843 79.0887 198.371 78.508C198.9 77.9187 199.546 77.4593 200.308 77.13C201.071 76.792 201.929 76.623 202.882 76.623C203.671 76.623 204.399 76.7573 205.066 77.026C205.742 77.286 206.323 77.6673 206.808 78.17C207.302 78.664 207.688 79.2793 207.965 80.016C208.243 80.744 208.381 81.576 208.381 82.512C208.381 82.876 208.342 83.1187 208.264 83.24C208.186 83.3613 208.039 83.422 207.822 83.422H199.021C199.047 84.254 199.16 84.9777 199.359 85.593C199.567 86.2083 199.853 86.724 200.217 87.14C200.581 87.5473 201.015 87.855 201.517 88.063C202.02 88.2623 202.583 88.362 203.207 88.362C203.788 88.362 204.286 88.297 204.702 88.167C205.127 88.0283 205.491 87.881 205.794 87.725C206.098 87.569 206.349 87.426 206.548 87.296C206.756 87.1573 206.934 87.088 207.081 87.088C207.272 87.088 207.419 87.1617 207.523 87.309L208.173 88.154ZM95.457 118.152C95.5957 118.152 95.717 118.208 95.821 118.321L96.822 119.4C96.0593 120.284 95.132 120.973 94.04 121.467C92.9567 121.961 91.6437 122.208 90.101 122.208C88.7663 122.208 87.553 121.978 86.461 121.519C85.369 121.051 84.4373 120.401 83.666 119.569C82.8947 118.728 82.2967 117.723 81.872 116.553C81.4473 115.383 81.235 114.096 81.235 112.692C81.235 111.288 81.456 110.001 81.898 108.831C82.34 107.661 82.9597 106.656 83.757 105.815C84.563 104.974 85.525 104.324 86.643 103.865C87.761 103.397 88.996 103.163 90.348 103.163C91.674 103.163 92.844 103.375 93.858 103.8C94.872 104.225 95.7647 104.801 96.536 105.529L95.704 106.686C95.652 106.773 95.5827 106.846 95.496 106.907C95.418 106.959 95.3097 106.985 95.171 106.985C95.015 106.985 94.8243 106.903 94.599 106.738C94.3737 106.565 94.079 106.374 93.715 106.166C93.351 105.958 92.896 105.772 92.35 105.607C91.804 105.434 91.1323 105.347 90.335 105.347C89.373 105.347 88.4933 105.516 87.696 105.854C86.8987 106.183 86.2097 106.664 85.629 107.297C85.057 107.93 84.6107 108.701 84.29 109.611C83.9693 110.521 83.809 111.548 83.809 112.692C83.809 113.853 83.9737 114.889 84.303 115.799C84.641 116.709 85.096 117.48 85.668 118.113C86.2487 118.737 86.929 119.214 87.709 119.543C88.4977 119.872 89.347 120.037 90.257 120.037C90.8117 120.037 91.31 120.007 91.752 119.946C92.2027 119.877 92.6143 119.773 92.987 119.634C93.3683 119.495 93.7193 119.322 94.04 119.114C94.3693 118.897 94.6943 118.642 95.015 118.347C95.1623 118.217 95.3097 118.152 95.457 118.152ZM104.497 108.623C105.459 108.623 106.326 108.783 107.097 109.104C107.869 109.425 108.527 109.88 109.073 110.469C109.619 111.058 110.035 111.773 110.321 112.614C110.616 113.446 110.763 114.378 110.763 115.409C110.763 116.449 110.616 117.385 110.321 118.217C110.035 119.049 109.619 119.76 109.073 120.349C108.527 120.938 107.869 121.393 107.097 121.714C106.326 122.026 105.459 122.182 104.497 122.182C103.527 122.182 102.651 122.026 101.871 121.714C101.1 121.393 100.441 120.938 99.8953 120.349C99.3493 119.76 98.9289 119.049 98.6343 118.217C98.3483 117.385 98.2053 116.449 98.2053 115.409C98.2053 114.378 98.3483 113.446 98.6343 112.614C98.9289 111.773 99.3493 111.058 99.8953 110.469C100.441 109.88 101.1 109.425 101.871 109.104C102.651 108.783 103.527 108.623 104.497 108.623ZM104.497 120.375C105.797 120.375 106.768 119.942 107.409 119.075C108.051 118.2 108.371 116.982 108.371 115.422C108.371 113.853 108.051 112.631 107.409 111.756C106.768 110.881 105.797 110.443 104.497 110.443C103.839 110.443 103.262 110.556 102.768 110.781C102.283 111.006 101.876 111.331 101.546 111.756C101.226 112.181 100.983 112.705 100.818 113.329C100.662 113.944 100.584 114.642 100.584 115.422C100.584 116.982 100.905 118.2 101.546 119.075C102.196 119.942 103.18 120.375 104.497 120.375ZM113.698 122V108.831H115.089C115.419 108.831 115.622 108.991 115.7 109.312L115.869 110.664C116.355 110.066 116.901 109.576 117.507 109.195C118.114 108.814 118.816 108.623 119.613 108.623C120.497 108.623 121.212 108.87 121.758 109.364C122.313 109.858 122.712 110.525 122.954 111.366C123.145 110.889 123.388 110.478 123.682 110.131C123.986 109.784 124.324 109.498 124.696 109.273C125.069 109.048 125.463 108.883 125.879 108.779C126.304 108.675 126.733 108.623 127.166 108.623C127.86 108.623 128.475 108.736 129.012 108.961C129.558 109.178 130.018 109.498 130.39 109.923C130.772 110.348 131.062 110.872 131.261 111.496C131.461 112.111 131.56 112.818 131.56 113.615V122H129.233V113.615C129.233 112.584 129.008 111.804 128.557 111.275C128.107 110.738 127.457 110.469 126.607 110.469C126.226 110.469 125.862 110.538 125.515 110.677C125.177 110.807 124.878 111.002 124.618 111.262C124.358 111.522 124.15 111.851 123.994 112.25C123.847 112.64 123.773 113.095 123.773 113.615V122H121.446V113.615C121.446 112.558 121.234 111.769 120.809 111.249C120.385 110.729 119.765 110.469 118.95 110.469C118.378 110.469 117.85 110.625 117.364 110.937C116.879 111.24 116.433 111.656 116.025 112.185V122H113.698ZM137.404 118.828C137.829 119.4 138.292 119.803 138.795 120.037C139.298 120.271 139.861 120.388 140.485 120.388C141.716 120.388 142.66 119.95 143.319 119.075C143.978 118.2 144.307 116.952 144.307 115.331C144.307 114.473 144.229 113.736 144.073 113.121C143.926 112.506 143.709 112.003 143.423 111.613C143.137 111.214 142.786 110.924 142.37 110.742C141.954 110.56 141.482 110.469 140.953 110.469C140.199 110.469 139.536 110.642 138.964 110.989C138.401 111.336 137.881 111.825 137.404 112.458V118.828ZM137.287 110.872C137.842 110.187 138.483 109.637 139.211 109.221C139.939 108.805 140.771 108.597 141.707 108.597C142.47 108.597 143.159 108.744 143.774 109.039C144.389 109.325 144.914 109.754 145.347 110.326C145.78 110.889 146.114 111.591 146.348 112.432C146.582 113.273 146.699 114.239 146.699 115.331C146.699 116.302 146.569 117.207 146.309 118.048C146.049 118.88 145.672 119.604 145.178 120.219C144.693 120.826 144.095 121.307 143.384 121.662C142.682 122.009 141.889 122.182 141.005 122.182C140.199 122.182 139.506 122.048 138.925 121.779C138.353 121.502 137.846 121.12 137.404 120.635V126.459H135.077V108.831H136.468C136.797 108.831 137.001 108.991 137.079 109.312L137.287 110.872ZM152.043 102.851V122H149.729V102.851H152.043ZM164.61 113.979C164.61 113.442 164.532 112.952 164.376 112.51C164.229 112.059 164.008 111.674 163.713 111.353C163.427 111.024 163.076 110.772 162.66 110.599C162.244 110.417 161.772 110.326 161.243 110.326C160.134 110.326 159.254 110.651 158.604 111.301C157.963 111.942 157.564 112.835 157.408 113.979H164.61ZM166.482 120.154C166.196 120.501 165.854 120.804 165.455 121.064C165.056 121.315 164.627 121.523 164.168 121.688C163.717 121.853 163.249 121.974 162.764 122.052C162.279 122.139 161.798 122.182 161.321 122.182C160.411 122.182 159.57 122.03 158.799 121.727C158.036 121.415 157.373 120.964 156.81 120.375C156.255 119.777 155.822 119.04 155.51 118.165C155.198 117.29 155.042 116.284 155.042 115.149C155.042 114.23 155.181 113.372 155.458 112.575C155.744 111.778 156.151 111.089 156.68 110.508C157.209 109.919 157.854 109.459 158.617 109.13C159.38 108.792 160.238 108.623 161.191 108.623C161.98 108.623 162.708 108.757 163.375 109.026C164.051 109.286 164.632 109.667 165.117 110.17C165.611 110.664 165.997 111.279 166.274 112.016C166.551 112.744 166.69 113.576 166.69 114.512C166.69 114.876 166.651 115.119 166.573 115.24C166.495 115.361 166.348 115.422 166.131 115.422H157.33C157.356 116.254 157.469 116.978 157.668 117.593C157.876 118.208 158.162 118.724 158.526 119.14C158.89 119.547 159.323 119.855 159.826 120.063C160.329 120.262 160.892 120.362 161.516 120.362C162.097 120.362 162.595 120.297 163.011 120.167C163.436 120.028 163.8 119.881 164.103 119.725C164.406 119.569 164.658 119.426 164.857 119.296C165.065 119.157 165.243 119.088 165.39 119.088C165.581 119.088 165.728 119.162 165.832 119.309L166.482 120.154ZM173.474 122.208C172.434 122.208 171.632 121.918 171.069 121.337C170.514 120.756 170.237 119.92 170.237 118.828V110.768H168.651C168.512 110.768 168.395 110.729 168.3 110.651C168.204 110.564 168.157 110.434 168.157 110.261V109.338L170.315 109.065L170.848 104.996C170.874 104.866 170.93 104.762 171.017 104.684C171.112 104.597 171.233 104.554 171.381 104.554H172.551V109.091H176.36V110.768H172.551V118.672C172.551 119.227 172.685 119.638 172.954 119.907C173.222 120.176 173.569 120.31 173.994 120.31C174.236 120.31 174.444 120.28 174.618 120.219C174.8 120.15 174.956 120.076 175.086 119.998C175.216 119.92 175.324 119.851 175.411 119.79C175.506 119.721 175.588 119.686 175.658 119.686C175.779 119.686 175.887 119.76 175.983 119.907L176.659 121.012C176.26 121.385 175.779 121.679 175.216 121.896C174.652 122.104 174.072 122.208 173.474 122.208ZM187.487 113.979C187.487 113.442 187.409 112.952 187.253 112.51C187.106 112.059 186.885 111.674 186.59 111.353C186.304 111.024 185.953 110.772 185.537 110.599C185.121 110.417 184.649 110.326 184.12 110.326C183.011 110.326 182.131 110.651 181.481 111.301C180.84 111.942 180.441 112.835 180.285 113.979H187.487ZM189.359 120.154C189.073 120.501 188.731 120.804 188.332 121.064C187.933 121.315 187.504 121.523 187.045 121.688C186.594 121.853 186.126 121.974 185.641 122.052C185.156 122.139 184.675 122.182 184.198 122.182C183.288 122.182 182.447 122.03 181.676 121.727C180.913 121.415 180.25 120.964 179.687 120.375C179.132 119.777 178.699 119.04 178.387 118.165C178.075 117.29 177.919 116.284 177.919 115.149C177.919 114.23 178.058 113.372 178.335 112.575C178.621 111.778 179.028 111.089 179.557 110.508C180.086 109.919 180.731 109.459 181.494 109.13C182.257 108.792 183.115 108.623 184.068 108.623C184.857 108.623 185.585 108.757 186.252 109.026C186.928 109.286 187.509 109.667 187.994 110.17C188.488 110.664 188.874 111.279 189.151 112.016C189.428 112.744 189.567 113.576 189.567 114.512C189.567 114.876 189.528 115.119 189.45 115.24C189.372 115.361 189.225 115.422 189.008 115.422H180.207C180.233 116.254 180.346 116.978 180.545 117.593C180.753 118.208 181.039 118.724 181.403 119.14C181.767 119.547 182.2 119.855 182.703 120.063C183.206 120.262 183.769 120.362 184.393 120.362C184.974 120.362 185.472 120.297 185.888 120.167C186.313 120.028 186.677 119.881 186.98 119.725C187.283 119.569 187.535 119.426 187.734 119.296C187.942 119.157 188.12 119.088 188.267 119.088C188.458 119.088 188.605 119.162 188.709 119.309L189.359 120.154ZM97.511 145.043V152.193C96.575 152.869 95.574 153.376 94.508 153.714C93.4507 154.043 92.2893 154.208 91.024 154.208C89.5247 154.208 88.1727 153.978 86.968 153.519C85.7633 153.051 84.732 152.401 83.874 151.569C83.0247 150.728 82.3703 149.723 81.911 148.553C81.4517 147.383 81.222 146.096 81.222 144.692C81.222 143.271 81.443 141.975 81.885 140.805C82.3357 139.635 82.9727 138.634 83.796 137.802C84.6193 136.961 85.6203 136.311 86.799 135.852C87.9777 135.393 89.295 135.163 90.751 135.163C91.4877 135.163 92.1723 135.219 92.805 135.332C93.4377 135.436 94.0227 135.592 94.56 135.8C95.0973 135.999 95.5957 136.246 96.055 136.541C96.5143 136.827 96.9433 137.152 97.342 137.516L96.627 138.66C96.5143 138.833 96.367 138.946 96.185 138.998C96.0117 139.041 95.8167 138.998 95.6 138.868C95.392 138.747 95.1537 138.599 94.885 138.426C94.6163 138.253 94.287 138.088 93.897 137.932C93.5157 137.767 93.0607 137.629 92.532 137.516C92.012 137.403 91.3923 137.347 90.673 137.347C89.6243 137.347 88.6753 137.52 87.826 137.867C86.9767 138.205 86.253 138.695 85.655 139.336C85.057 139.969 84.5977 140.74 84.277 141.65C83.9563 142.551 83.796 143.565 83.796 144.692C83.796 145.862 83.9607 146.911 84.29 147.838C84.628 148.757 85.1047 149.541 85.72 150.191C86.344 150.832 87.098 151.322 87.982 151.66C88.866 151.998 89.8583 152.167 90.959 152.167C91.8257 152.167 92.5927 152.072 93.26 151.881C93.936 151.682 94.5947 151.409 95.236 151.062V146.967H92.337C92.1723 146.967 92.038 146.919 91.934 146.824C91.8387 146.729 91.791 146.612 91.791 146.473V145.043H97.511ZM111.426 140.831V154H110.048C109.718 154 109.51 153.84 109.424 153.519L109.242 152.102C108.67 152.735 108.028 153.246 107.318 153.636C106.607 154.017 105.792 154.208 104.874 154.208C104.154 154.208 103.517 154.091 102.963 153.857C102.417 153.614 101.957 153.276 101.585 152.843C101.212 152.41 100.93 151.885 100.74 151.27C100.558 150.655 100.467 149.974 100.467 149.229V140.831H102.781V149.229C102.781 150.226 103.006 150.997 103.457 151.543C103.916 152.089 104.614 152.362 105.55 152.362C106.234 152.362 106.871 152.202 107.461 151.881C108.059 151.552 108.609 151.101 109.112 150.529V140.831H111.426ZM117.539 140.831V154H115.225V140.831H117.539ZM118.033 136.697C118.033 136.922 117.985 137.135 117.89 137.334C117.803 137.525 117.682 137.698 117.526 137.854C117.378 138.001 117.201 138.118 116.993 138.205C116.793 138.292 116.581 138.335 116.356 138.335C116.13 138.335 115.918 138.292 115.719 138.205C115.528 138.118 115.359 138.001 115.212 137.854C115.064 137.698 114.947 137.525 114.861 137.334C114.774 137.135 114.731 136.922 114.731 136.697C114.731 136.472 114.774 136.259 114.861 136.06C114.947 135.852 115.064 135.674 115.212 135.527C115.359 135.371 115.528 135.25 115.719 135.163C115.918 135.076 116.13 135.033 116.356 135.033C116.581 135.033 116.793 135.076 116.993 135.163C117.201 135.25 117.378 135.371 117.526 135.527C117.682 135.674 117.803 135.852 117.89 136.06C117.985 136.259 118.033 136.472 118.033 136.697ZM129.921 143.964C129.487 143.383 129.019 142.98 128.517 142.755C128.014 142.521 127.451 142.404 126.827 142.404C125.605 142.404 124.664 142.842 124.006 143.717C123.347 144.592 123.018 145.84 123.018 147.461C123.018 148.319 123.091 149.056 123.239 149.671C123.386 150.278 123.603 150.78 123.889 151.179C124.175 151.569 124.526 151.855 124.942 152.037C125.358 152.219 125.83 152.31 126.359 152.31C127.121 152.31 127.784 152.137 128.348 151.79C128.92 151.443 129.444 150.954 129.921 150.321V143.964ZM132.235 134.851V154H130.857C130.527 154 130.319 153.84 130.233 153.519L130.025 151.92C129.461 152.596 128.82 153.142 128.101 153.558C127.381 153.974 126.549 154.182 125.605 154.182C124.851 154.182 124.166 154.039 123.551 153.753C122.935 153.458 122.411 153.029 121.978 152.466C121.544 151.903 121.211 151.201 120.977 150.36C120.743 149.519 120.626 148.553 120.626 147.461C120.626 146.49 120.756 145.589 121.016 144.757C121.276 143.916 121.648 143.188 122.134 142.573C122.619 141.958 123.213 141.477 123.915 141.13C124.625 140.775 125.423 140.597 126.307 140.597C127.113 140.597 127.802 140.736 128.374 141.013C128.954 141.282 129.47 141.659 129.921 142.144V134.851H132.235ZM144.704 145.979C144.704 145.442 144.626 144.952 144.47 144.51C144.322 144.059 144.101 143.674 143.807 143.353C143.521 143.024 143.17 142.772 142.754 142.599C142.338 142.417 141.865 142.326 141.337 142.326C140.227 142.326 139.348 142.651 138.698 143.301C138.056 143.942 137.658 144.835 137.502 145.979H144.704ZM146.576 152.154C146.29 152.501 145.947 152.804 145.549 153.064C145.15 153.315 144.721 153.523 144.262 153.688C143.811 153.853 143.343 153.974 142.858 154.052C142.372 154.139 141.891 154.182 141.415 154.182C140.505 154.182 139.664 154.03 138.893 153.727C138.13 153.415 137.467 152.964 136.904 152.375C136.349 151.777 135.916 151.04 135.604 150.165C135.292 149.29 135.136 148.284 135.136 147.149C135.136 146.23 135.274 145.372 135.552 144.575C135.838 143.778 136.245 143.089 136.774 142.508C137.302 141.919 137.948 141.459 138.711 141.13C139.473 140.792 140.331 140.623 141.285 140.623C142.073 140.623 142.801 140.757 143.469 141.026C144.145 141.286 144.725 141.667 145.211 142.17C145.705 142.664 146.09 143.279 146.368 144.016C146.645 144.744 146.784 145.576 146.784 146.512C146.784 146.876 146.745 147.119 146.667 147.24C146.589 147.361 146.441 147.422 146.225 147.422H137.424C137.45 148.254 137.562 148.978 137.762 149.593C137.97 150.208 138.256 150.724 138.62 151.14C138.984 151.547 139.417 151.855 139.92 152.063C140.422 152.262 140.986 152.362 141.61 152.362C142.19 152.362 142.689 152.297 143.105 152.167C143.529 152.028 143.893 151.881 144.197 151.725C144.5 151.569 144.751 151.426 144.951 151.296C145.159 151.157 145.336 151.088 145.484 151.088C145.674 151.088 145.822 151.162 145.926 151.309L146.576 152.154Z" fill="white"/>
</g>
<defs>
<filter id="filter0_d_221_799" x="0" y="0" width="333" height="263" filterUnits="userSpaceOnUse" color-interpolation-filters="sRGB">
<feFlood flood-opacity="0" result="BackgroundImageFix"/>
<feColorMatrix in="SourceAlpha" type="matrix" values="0 0 0 0 0 0 0 0 0 0 0 0 0 0 0 0 0 0 127 0" result="hardAlpha"/>
<feOffset dy="24"/>
<feGaussianBlur stdDeviation="32"/>
<feColorMatrix type="matrix" values="0 0 0 0 0 0 0 0 0 0 0 0 0 0 0 0 0 0 0.04 0"/>
<feBlend mode="normal" in2="BackgroundImageFix" result="effect1_dropShadow_221_799"/>
<feBlend mode="normal" in="SourceGraphic" in2="effect1_dropShadow_221_799" result="shape"/>
</filter>
<linearGradient id="paint0_linear_221_799" x1="269" y1="175" x2="170.046" y2="-15.1782" gradientUnits="userSpaceOnUse">
<stop stop-color="#4481EB"/>
<stop offset="1" stop-color="#04BEFE"/>
</linearGradient>
<clipPath id="clip0_221_799">
<rect width="205" height="135" fill="white" transform="translate(64 40)"/>
</clipPath>
<clipPath id="clip1_221_799">
<rect width="200.62" height="200.62" fill="white" transform="translate(-25.1729 130.618) rotate(-38.4642)"/>
</clipPath>
</defs>
</svg>
