<svg width="205" height="135" viewBox="0 0 205 135" fill="none" xmlns="http://www.w3.org/2000/svg">
<g clip-path="url(#clip0_221_800)">
<rect width="205" height="135" rx="16" fill="url(#paint0_linear_221_800)"/>
<g opacity="0.1" clip-path="url(#clip1_221_800)">
<path d="M4.29283 144.806C0.181442 134.322 5.36535 122.449 15.8491 118.338L74.6143 95.2919C79.3795 93.4231 81.7359 88.0261 79.8671 83.2609L60.7527 34.5203C55.1464 20.2247 38.9552 13.1555 24.6596 18.7618L0.462145 28.2512C-13.8335 33.8575 -20.9027 50.0487 -15.2964 64.3443L-9.7383 78.5171L28.2862 63.6051C31.1502 62.482 34.3817 63.8928 35.5049 66.7568C36.628 69.6208 35.2171 72.8523 32.3532 73.9755L-30.2145 98.5125C-44.5102 104.119 -51.5793 120.31 -45.973 134.606L-36.4836 158.803C-30.8773 173.099 -14.6862 180.168 -0.390493 174.562L13.7823 169.003L4.29283 144.806ZM10.765 54.5227C7.90099 55.6459 4.66953 54.235 3.54636 51.371C2.42319 48.507 3.83408 45.2756 6.69807 44.1524C9.56207 43.0292 12.7935 44.4401 13.9167 47.3041C15.0399 50.1681 13.629 53.3996 10.765 54.5227Z" fill="white"/>
<path d="M94.9208 49.4384L80.748 54.9965L90.2374 79.194C94.3488 89.6777 89.1649 101.551 78.6812 105.662L19.916 128.708C15.1507 130.577 12.7943 135.974 14.6631 140.739L33.7776 189.48C39.3839 203.775 55.575 210.844 69.8707 205.238L94.0681 195.749C108.364 190.142 115.433 173.951 109.827 159.656L104.269 145.483L66.244 160.395C63.38 161.518 60.1486 160.107 59.0254 157.243C57.9022 154.379 59.3131 151.148 62.1771 150.025L124.745 125.487C139.04 119.881 146.11 103.69 140.503 89.3944L131.014 65.197C125.408 50.9013 109.216 43.8321 94.9208 49.4384ZM83.7653 169.477C86.6293 168.354 89.8607 169.765 90.9839 172.629C92.1071 175.493 90.6962 178.724 87.8322 179.848C84.9682 180.971 81.7367 179.56 80.6136 176.696C79.4904 173.832 80.9013 170.6 83.7653 169.477Z" fill="white"/>
</g>
<path d="M28.948 47.881V50H18.379V31.371H20.888V47.881H28.948ZM39.063 41.979C39.063 41.4417 38.985 40.952 38.829 40.51C38.6817 40.0593 38.4607 39.6737 38.166 39.353C37.88 39.0237 37.529 38.7723 37.113 38.599C36.697 38.417 36.2247 38.326 35.696 38.326C34.5867 38.326 33.707 38.651 33.057 39.301C32.4157 39.9423 32.017 40.835 31.861 41.979H39.063ZM40.935 48.154C40.649 48.5007 40.3067 48.804 39.908 49.064C39.5093 49.3153 39.0803 49.5233 38.621 49.688C38.1703 49.8527 37.7023 49.974 37.217 50.052C36.7317 50.1387 36.2507 50.182 35.774 50.182C34.864 50.182 34.0233 50.0303 33.252 49.727C32.4893 49.415 31.8263 48.9643 31.263 48.375C30.7083 47.777 30.275 47.0403 29.963 46.165C29.651 45.2897 29.495 44.2843 29.495 43.149C29.495 42.2303 29.6337 41.3723 29.911 40.575C30.197 39.7777 30.6043 39.0887 31.133 38.508C31.6617 37.9187 32.3073 37.4593 33.07 37.13C33.8327 36.792 34.6907 36.623 35.644 36.623C36.4327 36.623 37.1607 36.7573 37.828 37.026C38.504 37.286 39.0847 37.6673 39.57 38.17C40.064 38.664 40.4497 39.2793 40.727 40.016C41.0043 40.744 41.143 41.576 41.143 42.512C41.143 42.876 41.104 43.1187 41.026 43.24C40.948 43.3613 40.8007 43.422 40.584 43.422H31.783C31.809 44.254 31.9217 44.9777 32.121 45.593C32.329 46.2083 32.615 46.724 32.979 47.14C33.343 47.5473 33.7763 47.855 34.279 48.063C34.7817 48.2623 35.345 48.362 35.969 48.362C36.5497 48.362 37.048 48.297 37.464 48.167C37.8887 48.0283 38.2527 47.881 38.556 47.725C38.8593 47.569 39.1107 47.426 39.31 47.296C39.518 47.1573 39.6957 47.088 39.843 47.088C40.0337 47.088 40.181 47.1617 40.285 47.309L40.935 48.154ZM51.1223 44.072C50.0563 44.1067 49.1463 44.1933 48.3923 44.332C47.647 44.462 47.036 44.6353 46.5593 44.852C46.0913 45.0687 45.749 45.3243 45.5323 45.619C45.3243 45.9137 45.2203 46.243 45.2203 46.607C45.2203 46.9537 45.2767 47.2527 45.3893 47.504C45.502 47.7553 45.6537 47.9633 45.8443 48.128C46.0437 48.284 46.2733 48.401 46.5333 48.479C46.802 48.5483 47.088 48.583 47.3913 48.583C47.7987 48.583 48.1713 48.544 48.5093 48.466C48.8473 48.3793 49.1637 48.258 49.4583 48.102C49.7617 47.946 50.0477 47.7597 50.3163 47.543C50.5937 47.3263 50.8623 47.0793 51.1223 46.802V44.072ZM43.6473 38.69C44.3753 37.988 45.1597 37.4637 46.0003 37.117C46.841 36.7703 47.7727 36.597 48.7953 36.597C49.532 36.597 50.1863 36.7183 50.7583 36.961C51.3303 37.2037 51.8113 37.5417 52.2013 37.975C52.5913 38.4083 52.886 38.9327 53.0853 39.548C53.2847 40.1633 53.3843 40.8393 53.3843 41.576V50H52.3573C52.132 50 51.9587 49.9653 51.8373 49.896C51.716 49.818 51.6207 49.6707 51.5513 49.454L51.2913 48.206C50.9447 48.5267 50.6067 48.8127 50.2773 49.064C49.948 49.3067 49.6013 49.5147 49.2373 49.688C48.8733 49.8527 48.4833 49.9783 48.0673 50.065C47.66 50.1603 47.205 50.208 46.7023 50.208C46.191 50.208 45.71 50.1387 45.2593 50C44.8087 49.8527 44.4143 49.636 44.0763 49.35C43.747 49.064 43.4827 48.7043 43.2833 48.271C43.0927 47.829 42.9973 47.309 42.9973 46.711C42.9973 46.191 43.1403 45.6927 43.4263 45.216C43.7123 44.7307 44.176 44.3017 44.8173 43.929C45.4587 43.5563 46.295 43.253 47.3263 43.019C48.3577 42.7763 49.623 42.6377 51.1223 42.603V41.576C51.1223 40.5533 50.9013 39.782 50.4593 39.262C50.0173 38.7333 49.3717 38.469 48.5223 38.469C47.9503 38.469 47.4693 38.5427 47.0793 38.69C46.698 38.8287 46.3643 38.989 46.0783 39.171C45.801 39.3443 45.5583 39.5047 45.3503 39.652C45.151 39.7907 44.9517 39.86 44.7523 39.86C44.5963 39.86 44.462 39.821 44.3493 39.743C44.2367 39.6563 44.1413 39.5523 44.0633 39.431L43.6473 38.69ZM59.1062 39.47C59.5222 38.5687 60.0335 37.8667 60.6402 37.364C61.2468 36.8527 61.9878 36.597 62.8632 36.597C63.1405 36.597 63.4048 36.6273 63.6562 36.688C63.9162 36.7487 64.1458 36.844 64.3452 36.974L64.1762 38.703C64.1242 38.9197 63.9942 39.028 63.7862 39.028C63.6648 39.028 63.4872 39.002 63.2532 38.95C63.0192 38.898 62.7548 38.872 62.4602 38.872C62.0442 38.872 61.6715 38.9327 61.3422 39.054C61.0215 39.1753 60.7312 39.3573 60.4712 39.6C60.2198 39.834 59.9902 40.1287 59.7822 40.484C59.5828 40.8307 59.4008 41.2293 59.2362 41.68V50H56.9092V36.831H58.2352C58.4865 36.831 58.6598 36.8787 58.7552 36.974C58.8505 37.0693 58.9155 37.234 58.9502 37.468L59.1062 39.47ZM68.5639 38.742C68.8499 38.4213 69.1532 38.131 69.4739 37.871C69.7945 37.611 70.1325 37.39 70.4879 37.208C70.8519 37.0173 71.2332 36.8743 71.6319 36.779C72.0392 36.675 72.4769 36.623 72.9449 36.623C73.6642 36.623 74.2969 36.7443 74.8429 36.987C75.3975 37.221 75.8569 37.559 76.2209 38.001C76.5935 38.4343 76.8752 38.9587 77.0659 39.574C77.2565 40.1893 77.3519 40.8697 77.3519 41.615V50H75.0249V41.615C75.0249 40.6183 74.7952 39.847 74.3359 39.301C73.8852 38.7463 73.1962 38.469 72.2689 38.469C71.5842 38.469 70.9429 38.6337 70.3449 38.963C69.7555 39.2923 69.2095 39.7387 68.7069 40.302V50H66.3799V36.831H67.7709C68.1002 36.831 68.3039 36.9913 68.3819 37.312L68.5639 38.742ZM93.5753 41.03C94.2946 41.03 94.9273 40.9347 95.4733 40.744C96.0279 40.5533 96.4916 40.289 96.8643 39.951C97.2456 39.6043 97.5316 39.1927 97.7223 38.716C97.9129 38.2393 98.0083 37.715 98.0083 37.143C98.0083 35.9557 97.6399 35.0283 96.9033 34.361C96.1753 33.6937 95.0659 33.36 93.5753 33.36H90.5853V41.03H93.5753ZM93.5753 31.371C94.7539 31.371 95.7766 31.5097 96.6433 31.787C97.5186 32.0557 98.2423 32.4413 98.8143 32.944C99.3863 33.4467 99.8109 34.0533 100.088 34.764C100.374 35.4747 100.517 36.2677 100.517 37.143C100.517 38.0097 100.366 38.8027 100.062 39.522C99.7589 40.2413 99.3126 40.861 98.7233 41.381C98.1426 41.901 97.4189 42.3083 96.5523 42.603C95.6943 42.889 94.7019 43.032 93.5753 43.032H90.5853V50H88.0763V31.371H93.5753ZM114.508 36.831L107.163 53.887C107.085 54.0603 106.985 54.199 106.864 54.303C106.751 54.407 106.573 54.459 106.331 54.459H104.615L107.02 49.233L101.586 36.831H103.588C103.787 36.831 103.943 36.883 104.056 36.987C104.177 37.0823 104.259 37.1907 104.303 37.312L107.826 45.606C107.964 45.97 108.081 46.3513 108.176 46.75C108.298 46.3427 108.428 45.957 108.567 45.593L111.986 37.312C112.038 37.1733 112.124 37.0607 112.246 36.974C112.376 36.8787 112.519 36.831 112.675 36.831H114.508ZM120.595 50.208C119.555 50.208 118.753 49.9177 118.19 49.337C117.635 48.7563 117.358 47.92 117.358 46.828V38.768H115.772C115.633 38.768 115.516 38.729 115.421 38.651C115.325 38.5643 115.278 38.4343 115.278 38.261V37.338L117.436 37.065L117.969 32.996C117.995 32.866 118.051 32.762 118.138 32.684C118.233 32.5973 118.354 32.554 118.502 32.554H119.672V37.091H123.481V38.768H119.672V46.672C119.672 47.2267 119.806 47.6383 120.075 47.907C120.343 48.1757 120.69 48.31 121.115 48.31C121.357 48.31 121.565 48.2797 121.739 48.219C121.921 48.1497 122.077 48.076 122.207 47.998C122.337 47.92 122.445 47.8507 122.532 47.79C122.627 47.7207 122.709 47.686 122.779 47.686C122.9 47.686 123.008 47.7597 123.104 47.907L123.78 49.012C123.381 49.3847 122.9 49.6793 122.337 49.896C121.773 50.104 121.193 50.208 120.595 50.208ZM128.197 38.586C128.76 37.988 129.384 37.5113 130.069 37.156C130.754 36.8007 131.542 36.623 132.435 36.623C133.154 36.623 133.787 36.7443 134.333 36.987C134.888 37.221 135.347 37.559 135.711 38.001C136.084 38.4343 136.365 38.9587 136.556 39.574C136.747 40.1893 136.842 40.8697 136.842 41.615V50H134.515V41.615C134.515 40.6183 134.285 39.847 133.826 39.301C133.375 38.7463 132.686 38.469 131.759 38.469C131.074 38.469 130.433 38.6337 129.835 38.963C129.246 39.2923 128.7 39.7387 128.197 40.302V50H125.87V30.851H128.197V38.586ZM145.919 36.623C146.881 36.623 147.748 36.7833 148.519 37.104C149.29 37.4247 149.949 37.8797 150.495 38.469C151.041 39.0583 151.457 39.7733 151.743 40.614C152.038 41.446 152.185 42.3777 152.185 43.409C152.185 44.449 152.038 45.385 151.743 46.217C151.457 47.049 151.041 47.7597 150.495 48.349C149.949 48.9383 149.29 49.3933 148.519 49.714C147.748 50.026 146.881 50.182 145.919 50.182C144.948 50.182 144.073 50.026 143.293 49.714C142.522 49.3933 141.863 48.9383 141.317 48.349C140.771 47.7597 140.351 47.049 140.056 46.217C139.77 45.385 139.627 44.449 139.627 43.409C139.627 42.3777 139.77 41.446 140.056 40.614C140.351 39.7733 140.771 39.0583 141.317 38.469C141.863 37.8797 142.522 37.4247 143.293 37.104C144.073 36.7833 144.948 36.623 145.919 36.623ZM145.919 48.375C147.219 48.375 148.19 47.9417 148.831 47.075C149.472 46.1997 149.793 44.982 149.793 43.422C149.793 41.8533 149.472 40.6313 148.831 39.756C148.19 38.8807 147.219 38.443 145.919 38.443C145.26 38.443 144.684 38.5557 144.19 38.781C143.705 39.0063 143.297 39.3313 142.968 39.756C142.647 40.1807 142.405 40.705 142.24 41.329C142.084 41.9443 142.006 42.642 142.006 43.422C142.006 44.982 142.327 46.1997 142.968 47.075C143.618 47.9417 144.602 48.375 145.919 48.375ZM157.304 38.742C157.59 38.4213 157.893 38.131 158.214 37.871C158.535 37.611 158.873 37.39 159.228 37.208C159.592 37.0173 159.973 36.8743 160.372 36.779C160.779 36.675 161.217 36.623 161.685 36.623C162.404 36.623 163.037 36.7443 163.583 36.987C164.138 37.221 164.597 37.559 164.961 38.001C165.334 38.4343 165.615 38.9587 165.806 39.574C165.997 40.1893 166.092 40.8697 166.092 41.615V50H163.765V41.615C163.765 40.6183 163.535 39.847 163.076 39.301C162.625 38.7463 161.936 38.469 161.009 38.469C160.324 38.469 159.683 38.6337 159.085 38.963C158.496 39.2923 157.95 39.7387 157.447 40.302V50H155.12V36.831H156.511C156.84 36.831 157.044 36.9913 157.122 37.312L157.304 38.742ZM23.878 73.03C24.5973 73.03 25.23 72.9347 25.776 72.744C26.3307 72.5533 26.7943 72.289 27.167 71.951C27.5483 71.6043 27.8343 71.1927 28.025 70.716C28.2157 70.2393 28.311 69.715 28.311 69.143C28.311 67.9557 27.9427 67.0283 27.206 66.361C26.478 65.6937 25.3687 65.36 23.878 65.36H20.888V73.03H23.878ZM23.878 63.371C25.0567 63.371 26.0793 63.5097 26.946 63.787C27.8213 64.0557 28.545 64.4413 29.117 64.944C29.689 65.4467 30.1137 66.0533 30.391 66.764C30.677 67.4747 30.82 68.2677 30.82 69.143C30.82 70.0097 30.6683 70.8027 30.365 71.522C30.0617 72.2413 29.6153 72.861 29.026 73.381C28.4453 73.901 27.7217 74.3083 26.855 74.603C25.997 74.889 25.0047 75.032 23.878 75.032H20.888V82H18.379V63.371H23.878ZM35.3913 71.47C35.8073 70.5687 36.3187 69.8667 36.9253 69.364C37.532 68.8527 38.273 68.597 39.1483 68.597C39.4257 68.597 39.69 68.6273 39.9413 68.688C40.2013 68.7487 40.431 68.844 40.6303 68.974L40.4613 70.703C40.4093 70.9197 40.2793 71.028 40.0713 71.028C39.95 71.028 39.7723 71.002 39.5383 70.95C39.3043 70.898 39.04 70.872 38.7453 70.872C38.3293 70.872 37.9567 70.9327 37.6273 71.054C37.3067 71.1753 37.0163 71.3573 36.7563 71.6C36.505 71.834 36.2753 72.1287 36.0673 72.484C35.868 72.8307 35.686 73.2293 35.5213 73.68V82H33.1943V68.831H34.5203C34.7717 68.831 34.945 68.8787 35.0403 68.974C35.1357 69.0693 35.2007 69.234 35.2353 69.468L35.3913 71.47ZM47.6828 68.623C48.6448 68.623 49.5115 68.7833 50.2828 69.104C51.0542 69.4247 51.7128 69.8797 52.2588 70.469C52.8048 71.0583 53.2208 71.7733 53.5068 72.614C53.8015 73.446 53.9488 74.3777 53.9488 75.409C53.9488 76.449 53.8015 77.385 53.5068 78.217C53.2208 79.049 52.8048 79.7597 52.2588 80.349C51.7128 80.9383 51.0542 81.3933 50.2828 81.714C49.5115 82.026 48.6448 82.182 47.6828 82.182C46.7122 82.182 45.8368 82.026 45.0568 81.714C44.2855 81.3933 43.6268 80.9383 43.0808 80.349C42.5348 79.7597 42.1145 79.049 41.8198 78.217C41.5338 77.385 41.3908 76.449 41.3908 75.409C41.3908 74.3777 41.5338 73.446 41.8198 72.614C42.1145 71.7733 42.5348 71.0583 43.0808 70.469C43.6268 69.8797 44.2855 69.4247 45.0568 69.104C45.8368 68.7833 46.7122 68.623 47.6828 68.623ZM47.6828 80.375C48.9828 80.375 49.9535 79.9417 50.5948 79.075C51.2362 78.1997 51.5568 76.982 51.5568 75.422C51.5568 73.8533 51.2362 72.6313 50.5948 71.756C49.9535 70.8807 48.9828 70.443 47.6828 70.443C47.0242 70.443 46.4478 70.5557 45.9538 70.781C45.4685 71.0063 45.0612 71.3313 44.7318 71.756C44.4112 72.1807 44.1685 72.705 44.0038 73.329C43.8478 73.9443 43.7698 74.642 43.7698 75.422C43.7698 76.982 44.0905 78.1997 44.7318 79.075C45.3818 79.9417 46.3655 80.375 47.6828 80.375ZM61.3966 75.565C61.8646 75.565 62.2763 75.5 62.6316 75.37C62.9869 75.24 63.2859 75.058 63.5286 74.824C63.7713 74.59 63.9533 74.3127 64.0746 73.992C64.1959 73.6627 64.2566 73.303 64.2566 72.913C64.2566 72.107 64.0096 71.4657 63.5156 70.989C63.0303 70.5123 62.3239 70.274 61.3966 70.274C60.4606 70.274 59.7456 70.5123 59.2516 70.989C58.7663 71.4657 58.5236 72.107 58.5236 72.913C58.5236 73.303 58.5843 73.6627 58.7056 73.992C58.8356 74.3127 59.0219 74.59 59.2646 74.824C59.5073 75.058 59.8063 75.24 60.1616 75.37C60.5169 75.5 60.9286 75.565 61.3966 75.565ZM65.5696 82.715C65.5696 82.3943 65.4786 82.1343 65.2966 81.935C65.1146 81.7357 64.8676 81.5797 64.5556 81.467C64.2523 81.3543 63.8969 81.2763 63.4896 81.233C63.0823 81.181 62.6489 81.142 62.1896 81.116C61.7389 81.09 61.2796 81.064 60.8116 81.038C60.3436 81.012 59.8929 80.9687 59.4596 80.908C58.9743 81.1333 58.5756 81.4193 58.2636 81.766C57.9603 82.104 57.8086 82.5027 57.8086 82.962C57.8086 83.2567 57.8823 83.5297 58.0296 83.781C58.1856 84.041 58.4196 84.262 58.7316 84.444C59.0436 84.6347 59.4336 84.782 59.9016 84.886C60.3783 84.9987 60.9373 85.055 61.5786 85.055C62.2026 85.055 62.7616 84.9987 63.2556 84.886C63.7496 84.7733 64.1656 84.613 64.5036 84.405C64.8503 84.197 65.1146 83.95 65.2966 83.664C65.4786 83.378 65.5696 83.0617 65.5696 82.715ZM67.9226 69.351V70.209C67.9226 70.495 67.7406 70.677 67.3766 70.755L65.8816 70.95C66.1763 71.522 66.3236 72.1547 66.3236 72.848C66.3236 73.4893 66.1979 74.0743 65.9466 74.603C65.7039 75.123 65.3659 75.5693 64.9326 75.942C64.4993 76.3147 63.9793 76.6007 63.3726 76.8C62.7659 76.9993 62.1073 77.099 61.3966 77.099C60.7813 77.099 60.2006 77.0253 59.6546 76.878C59.3773 77.0513 59.1649 77.2377 59.0176 77.437C58.8703 77.6277 58.7966 77.8227 58.7966 78.022C58.7966 78.334 58.9223 78.5723 59.1736 78.737C59.4336 78.893 59.7716 79.0057 60.1876 79.075C60.6036 79.1443 61.0759 79.1877 61.6046 79.205C62.1419 79.2223 62.6879 79.2527 63.2426 79.296C63.8059 79.3307 64.3519 79.3957 64.8806 79.491C65.4179 79.5863 65.8946 79.7423 66.3106 79.959C66.7266 80.1757 67.0603 80.4747 67.3116 80.856C67.5716 81.2373 67.7016 81.7313 67.7016 82.338C67.7016 82.9013 67.5586 83.4473 67.2726 83.976C66.9953 84.5047 66.5923 84.9727 66.0636 85.38C65.5349 85.796 64.8849 86.1253 64.1136 86.368C63.3509 86.6193 62.4886 86.745 61.5266 86.745C60.5646 86.745 59.7239 86.6497 59.0046 86.459C58.2853 86.2683 57.6873 86.0127 57.2106 85.692C56.7339 85.3713 56.3743 84.9987 56.1316 84.574C55.8976 84.158 55.7806 83.7203 55.7806 83.261C55.7806 82.611 55.9843 82.0607 56.3916 81.61C56.7989 81.1593 57.3579 80.7997 58.0686 80.531C57.6786 80.3577 57.3666 80.128 57.1326 79.842C56.9073 79.5473 56.7946 79.153 56.7946 78.659C56.7946 78.4683 56.8293 78.2733 56.8986 78.074C56.9679 77.866 57.0719 77.6623 57.2106 77.463C57.3579 77.255 57.5356 77.06 57.7436 76.878C57.9516 76.696 58.1943 76.5357 58.4716 76.397C57.8216 76.033 57.3146 75.552 56.9506 74.954C56.5866 74.3473 56.4046 73.6453 56.4046 72.848C56.4046 72.2067 56.5259 71.626 56.7686 71.106C57.0199 70.5773 57.3666 70.131 57.8086 69.767C58.2506 69.3943 58.7749 69.1083 59.3816 68.909C59.9969 68.7097 60.6686 68.61 61.3966 68.61C61.9686 68.61 62.5016 68.675 62.9956 68.805C63.4896 68.9263 63.9403 69.1083 64.3476 69.351H67.9226ZM72.5124 71.47C72.9284 70.5687 73.4398 69.8667 74.0464 69.364C74.6531 68.8527 75.3941 68.597 76.2694 68.597C76.5468 68.597 76.8111 68.6273 77.0624 68.688C77.3224 68.7487 77.5521 68.844 77.7514 68.974L77.5824 70.703C77.5304 70.9197 77.4004 71.028 77.1924 71.028C77.0711 71.028 76.8934 71.002 76.6594 70.95C76.4254 70.898 76.1611 70.872 75.8664 70.872C75.4504 70.872 75.0778 70.9327 74.7484 71.054C74.4278 71.1753 74.1374 71.3573 73.8774 71.6C73.6261 71.834 73.3964 72.1287 73.1884 72.484C72.9891 72.8307 72.8071 73.2293 72.6424 73.68V82H70.3154V68.831H71.6414C71.8928 68.831 72.0661 68.8787 72.1614 68.974C72.2568 69.0693 72.3218 69.234 72.3564 69.468L72.5124 71.47ZM86.72 76.072C85.654 76.1067 84.744 76.1933 83.99 76.332C83.2447 76.462 82.6337 76.6353 82.157 76.852C81.689 77.0687 81.3467 77.3243 81.13 77.619C80.922 77.9137 80.818 78.243 80.818 78.607C80.818 78.9537 80.8743 79.2527 80.987 79.504C81.0997 79.7553 81.2513 79.9633 81.442 80.128C81.6413 80.284 81.871 80.401 82.131 80.479C82.3997 80.5483 82.6857 80.583 82.989 80.583C83.3963 80.583 83.769 80.544 84.107 80.466C84.445 80.3793 84.7613 80.258 85.056 80.102C85.3593 79.946 85.6453 79.7597 85.914 79.543C86.1913 79.3263 86.46 79.0793 86.72 78.802V76.072ZM79.245 70.69C79.973 69.988 80.7573 69.4637 81.598 69.117C82.4387 68.7703 83.3703 68.597 84.393 68.597C85.1297 68.597 85.784 68.7183 86.356 68.961C86.928 69.2037 87.409 69.5417 87.799 69.975C88.189 70.4083 88.4837 70.9327 88.683 71.548C88.8823 72.1633 88.982 72.8393 88.982 73.576V82H87.955C87.7297 82 87.5563 81.9653 87.435 81.896C87.3137 81.818 87.2183 81.6707 87.149 81.454L86.889 80.206C86.5423 80.5267 86.2043 80.8127 85.875 81.064C85.5457 81.3067 85.199 81.5147 84.835 81.688C84.471 81.8527 84.081 81.9783 83.665 82.065C83.2577 82.1603 82.8027 82.208 82.3 82.208C81.7887 82.208 81.3077 82.1387 80.857 82C80.4063 81.8527 80.012 81.636 79.674 81.35C79.3447 81.064 79.0803 80.7043 78.881 80.271C78.6903 79.829 78.595 79.309 78.595 78.711C78.595 78.191 78.738 77.6927 79.024 77.216C79.31 76.7307 79.7737 76.3017 80.415 75.929C81.0563 75.5563 81.8927 75.253 82.924 75.019C83.9553 74.7763 85.2207 74.6377 86.72 74.603V73.576C86.72 72.5533 86.499 71.782 86.057 71.262C85.615 70.7333 84.9693 70.469 84.12 70.469C83.548 70.469 83.067 70.5427 82.677 70.69C82.2957 70.8287 81.962 70.989 81.676 71.171C81.3987 71.3443 81.156 71.5047 80.948 71.652C80.7487 71.7907 80.5493 71.86 80.35 71.86C80.194 71.86 80.0597 71.821 79.947 71.743C79.8343 71.6563 79.739 71.5523 79.661 71.431L79.245 70.69ZM92.5068 82V68.831H93.8978C94.2272 68.831 94.4308 68.9913 94.5088 69.312L94.6778 70.664C95.1632 70.066 95.7092 69.5763 96.3158 69.195C96.9225 68.8137 97.6245 68.623 98.4218 68.623C99.3058 68.623 100.021 68.87 100.567 69.364C101.121 69.858 101.52 70.5253 101.763 71.366C101.953 70.8893 102.196 70.4777 102.491 70.131C102.794 69.7843 103.132 69.4983 103.505 69.273C103.877 69.0477 104.272 68.883 104.688 68.779C105.112 68.675 105.541 68.623 105.975 68.623C106.668 68.623 107.283 68.7357 107.821 68.961C108.367 69.1777 108.826 69.4983 109.199 69.923C109.58 70.3477 109.87 70.872 110.07 71.496C110.269 72.1113 110.369 72.8177 110.369 73.615V82H108.042V73.615C108.042 72.5837 107.816 71.8037 107.366 71.275C106.915 70.7377 106.265 70.469 105.416 70.469C105.034 70.469 104.67 70.5383 104.324 70.677C103.986 70.807 103.687 71.002 103.427 71.262C103.167 71.522 102.959 71.8513 102.803 72.25C102.655 72.64 102.582 73.095 102.582 73.615V82H100.255V73.615C100.255 72.5577 100.042 71.769 99.6178 71.249C99.1932 70.729 98.5735 70.469 97.7588 70.469C97.1868 70.469 96.6582 70.625 96.1728 70.937C95.6875 71.2403 95.2412 71.6563 94.8338 72.185V82H92.5068ZM113.886 82V68.831H115.277C115.606 68.831 115.81 68.9913 115.888 69.312L116.057 70.664C116.542 70.066 117.088 69.5763 117.695 69.195C118.301 68.8137 119.003 68.623 119.801 68.623C120.685 68.623 121.4 68.87 121.946 69.364C122.5 69.858 122.899 70.5253 123.142 71.366C123.332 70.8893 123.575 70.4777 123.87 70.131C124.173 69.7843 124.511 69.4983 124.884 69.273C125.256 69.0477 125.651 68.883 126.067 68.779C126.491 68.675 126.92 68.623 127.354 68.623C128.047 68.623 128.662 68.7357 129.2 68.961C129.746 69.1777 130.205 69.4983 130.578 69.923C130.959 70.3477 131.249 70.872 131.449 71.496C131.648 72.1113 131.748 72.8177 131.748 73.615V82H129.421V73.615C129.421 72.5837 129.195 71.8037 128.745 71.275C128.294 70.7377 127.644 70.469 126.795 70.469C126.413 70.469 126.049 70.5383 125.703 70.677C125.365 70.807 125.066 71.002 124.806 71.262C124.546 71.522 124.338 71.8513 124.182 72.25C124.034 72.64 123.961 73.095 123.961 73.615V82H121.634V73.615C121.634 72.5577 121.421 71.769 120.997 71.249C120.572 70.729 119.952 70.469 119.138 70.469C118.566 70.469 118.037 70.625 117.552 70.937C117.066 71.2403 116.62 71.6563 116.213 72.185V82H113.886ZM137.709 68.831V82H135.395V68.831H137.709ZM138.203 64.697C138.203 64.9223 138.155 65.1347 138.06 65.334C137.973 65.5247 137.852 65.698 137.696 65.854C137.548 66.0013 137.371 66.1183 137.163 66.205C136.963 66.2917 136.751 66.335 136.526 66.335C136.3 66.335 136.088 66.2917 135.889 66.205C135.698 66.1183 135.529 66.0013 135.382 65.854C135.234 65.698 135.117 65.5247 135.031 65.334C134.944 65.1347 134.901 64.9223 134.901 64.697C134.901 64.4717 134.944 64.2593 135.031 64.06C135.117 63.852 135.234 63.6743 135.382 63.527C135.529 63.371 135.698 63.2497 135.889 63.163C136.088 63.0763 136.3 63.033 136.526 63.033C136.751 63.033 136.963 63.0763 137.163 63.163C137.371 63.2497 137.548 63.371 137.696 63.527C137.852 63.6743 137.973 63.852 138.06 64.06C138.155 64.2593 138.203 64.4717 138.203 64.697ZM143.695 70.742C143.981 70.4213 144.284 70.131 144.605 69.871C144.925 69.611 145.263 69.39 145.619 69.208C145.983 69.0173 146.364 68.8743 146.763 68.779C147.17 68.675 147.608 68.623 148.076 68.623C148.795 68.623 149.428 68.7443 149.974 68.987C150.528 69.221 150.988 69.559 151.352 70.001C151.724 70.4343 152.006 70.9587 152.197 71.574C152.387 72.1893 152.483 72.8697 152.483 73.615V82H150.156V73.615C150.156 72.6183 149.926 71.847 149.467 71.301C149.016 70.7463 148.327 70.469 147.4 70.469C146.715 70.469 146.074 70.6337 145.476 70.963C144.886 71.2923 144.34 71.7387 143.838 72.302V82H141.511V68.831H142.902C143.231 68.831 143.435 68.9913 143.513 69.312L143.695 70.742ZM160.598 75.565C161.066 75.565 161.477 75.5 161.833 75.37C162.188 75.24 162.487 75.058 162.73 74.824C162.972 74.59 163.154 74.3127 163.276 73.992C163.397 73.6627 163.458 73.303 163.458 72.913C163.458 72.107 163.211 71.4657 162.717 70.989C162.231 70.5123 161.525 70.274 160.598 70.274C159.662 70.274 158.947 70.5123 158.453 70.989C157.967 71.4657 157.725 72.107 157.725 72.913C157.725 73.303 157.785 73.6627 157.907 73.992C158.037 74.3127 158.223 74.59 158.466 74.824C158.708 75.058 159.007 75.24 159.363 75.37C159.718 75.5 160.13 75.565 160.598 75.565ZM164.771 82.715C164.771 82.3943 164.68 82.1343 164.498 81.935C164.316 81.7357 164.069 81.5797 163.757 81.467C163.453 81.3543 163.098 81.2763 162.691 81.233C162.283 81.181 161.85 81.142 161.391 81.116C160.94 81.09 160.481 81.064 160.013 81.038C159.545 81.012 159.094 80.9687 158.661 80.908C158.175 81.1333 157.777 81.4193 157.465 81.766C157.161 82.104 157.01 82.5027 157.01 82.962C157.01 83.2567 157.083 83.5297 157.231 83.781C157.387 84.041 157.621 84.262 157.933 84.444C158.245 84.6347 158.635 84.782 159.103 84.886C159.579 84.9987 160.138 85.055 160.78 85.055C161.404 85.055 161.963 84.9987 162.457 84.886C162.951 84.7733 163.367 84.613 163.705 84.405C164.051 84.197 164.316 83.95 164.498 83.664C164.68 83.378 164.771 83.0617 164.771 82.715ZM167.124 69.351V70.209C167.124 70.495 166.942 70.677 166.578 70.755L165.083 70.95C165.377 71.522 165.525 72.1547 165.525 72.848C165.525 73.4893 165.399 74.0743 165.148 74.603C164.905 75.123 164.567 75.5693 164.134 75.942C163.7 76.3147 163.18 76.6007 162.574 76.8C161.967 76.9993 161.308 77.099 160.598 77.099C159.982 77.099 159.402 77.0253 158.856 76.878C158.578 77.0513 158.366 77.2377 158.219 77.437C158.071 77.6277 157.998 77.8227 157.998 78.022C157.998 78.334 158.123 78.5723 158.375 78.737C158.635 78.893 158.973 79.0057 159.389 79.075C159.805 79.1443 160.277 79.1877 160.806 79.205C161.343 79.2223 161.889 79.2527 162.444 79.296C163.007 79.3307 163.553 79.3957 164.082 79.491C164.619 79.5863 165.096 79.7423 165.512 79.959C165.928 80.1757 166.261 80.4747 166.513 80.856C166.773 81.2373 166.903 81.7313 166.903 82.338C166.903 82.9013 166.76 83.4473 166.474 83.976C166.196 84.5047 165.793 84.9727 165.265 85.38C164.736 85.796 164.086 86.1253 163.315 86.368C162.552 86.6193 161.69 86.745 160.728 86.745C159.766 86.745 158.925 86.6497 158.206 86.459C157.486 86.2683 156.888 86.0127 156.412 85.692C155.935 85.3713 155.575 84.9987 155.333 84.574C155.099 84.158 154.982 83.7203 154.982 83.261C154.982 82.611 155.185 82.0607 155.593 81.61C156 81.1593 156.559 80.7997 157.27 80.531C156.88 80.3577 156.568 80.128 156.334 79.842C156.108 79.5473 155.996 79.153 155.996 78.659C155.996 78.4683 156.03 78.2733 156.1 78.074C156.169 77.866 156.273 77.6623 156.412 77.463C156.559 77.255 156.737 77.06 156.945 76.878C157.153 76.696 157.395 76.5357 157.673 76.397C157.023 76.033 156.516 75.552 156.152 74.954C155.788 74.3473 155.606 73.6453 155.606 72.848C155.606 72.2067 155.727 71.626 155.97 71.106C156.221 70.5773 156.568 70.131 157.01 69.767C157.452 69.3943 157.976 69.1083 158.583 68.909C159.198 68.7097 159.87 68.61 160.598 68.61C161.17 68.61 161.703 68.675 162.197 68.805C162.691 68.9263 163.141 69.1083 163.549 69.351H167.124ZM37.762 95.371V114H35.552V100.311C35.552 100.129 35.5563 99.934 35.565 99.726C35.5823 99.518 35.5997 99.3057 35.617 99.089L29.221 110.737C29.0217 111.127 28.7183 111.322 28.311 111.322H27.947C27.5397 111.322 27.2363 111.127 27.037 110.737L20.511 99.037C20.563 99.4963 20.589 99.921 20.589 100.311V114H18.379V95.371H20.238C20.4633 95.371 20.6367 95.3927 20.758 95.436C20.8793 95.4793 20.9963 95.6007 21.109 95.8L27.544 107.266C27.648 107.474 27.7477 107.691 27.843 107.916C27.947 108.141 28.0423 108.371 28.129 108.605C28.2157 108.371 28.3067 108.141 28.402 107.916C28.4973 107.682 28.6013 107.461 28.714 107.253L35.032 95.8C35.136 95.6007 35.2487 95.4793 35.37 95.436C35.5 95.3927 35.6777 95.371 35.903 95.371H37.762ZM48.7356 108.072C47.6696 108.107 46.7596 108.193 46.0056 108.332C45.2603 108.462 44.6493 108.635 44.1726 108.852C43.7046 109.069 43.3623 109.324 43.1456 109.619C42.9376 109.914 42.8336 110.243 42.8336 110.607C42.8336 110.954 42.89 111.253 43.0026 111.504C43.1153 111.755 43.267 111.963 43.4576 112.128C43.657 112.284 43.8866 112.401 44.1466 112.479C44.4153 112.548 44.7013 112.583 45.0046 112.583C45.412 112.583 45.7846 112.544 46.1226 112.466C46.4606 112.379 46.777 112.258 47.0716 112.102C47.375 111.946 47.661 111.76 47.9296 111.543C48.207 111.326 48.4756 111.079 48.7356 110.802V108.072ZM41.2606 102.69C41.9886 101.988 42.773 101.464 43.6136 101.117C44.4543 100.77 45.386 100.597 46.4086 100.597C47.1453 100.597 47.7996 100.718 48.3716 100.961C48.9436 101.204 49.4246 101.542 49.8146 101.975C50.2046 102.408 50.4993 102.933 50.6986 103.548C50.898 104.163 50.9976 104.839 50.9976 105.576V114H49.9706C49.7453 114 49.572 113.965 49.4506 113.896C49.3293 113.818 49.234 113.671 49.1646 113.454L48.9046 112.206C48.558 112.527 48.22 112.813 47.8906 113.064C47.5613 113.307 47.2146 113.515 46.8506 113.688C46.4866 113.853 46.0966 113.978 45.6806 114.065C45.2733 114.16 44.8183 114.208 44.3156 114.208C43.8043 114.208 43.3233 114.139 42.8726 114C42.422 113.853 42.0276 113.636 41.6896 113.35C41.3603 113.064 41.096 112.704 40.8966 112.271C40.706 111.829 40.6106 111.309 40.6106 110.711C40.6106 110.191 40.7536 109.693 41.0396 109.216C41.3256 108.731 41.7893 108.302 42.4306 107.929C43.072 107.556 43.9083 107.253 44.9396 107.019C45.971 106.776 47.2363 106.638 48.7356 106.603V105.576C48.7356 104.553 48.5146 103.782 48.0726 103.262C47.6306 102.733 46.985 102.469 46.1356 102.469C45.5636 102.469 45.0826 102.543 44.6926 102.69C44.3113 102.829 43.9776 102.989 43.6916 103.171C43.4143 103.344 43.1716 103.505 42.9636 103.652C42.7643 103.791 42.565 103.86 42.3656 103.86C42.2096 103.86 42.0753 103.821 41.9626 103.743C41.85 103.656 41.7546 103.552 41.6766 103.431L41.2606 102.69ZM62.1925 103.002C62.0885 103.193 61.9281 103.288 61.7115 103.288C61.5815 103.288 61.4341 103.24 61.2695 103.145C61.1048 103.05 60.9011 102.946 60.6585 102.833C60.4245 102.712 60.1428 102.603 59.8135 102.508C59.4841 102.404 59.0941 102.352 58.6435 102.352C58.2535 102.352 57.9025 102.404 57.5905 102.508C57.2785 102.603 57.0098 102.738 56.7845 102.911C56.5678 103.084 56.3988 103.288 56.2775 103.522C56.1648 103.747 56.1085 103.994 56.1085 104.263C56.1085 104.601 56.2038 104.883 56.3945 105.108C56.5938 105.333 56.8538 105.528 57.1745 105.693C57.4951 105.858 57.8591 106.005 58.2665 106.135C58.6738 106.256 59.0898 106.391 59.5145 106.538C59.9478 106.677 60.3681 106.833 60.7755 107.006C61.1828 107.179 61.5468 107.396 61.8675 107.656C62.1881 107.916 62.4438 108.237 62.6345 108.618C62.8338 108.991 62.9335 109.441 62.9335 109.97C62.9335 110.577 62.8251 111.14 62.6085 111.66C62.3918 112.171 62.0711 112.618 61.6465 112.999C61.2218 113.372 60.7018 113.666 60.0865 113.883C59.4711 114.1 58.7605 114.208 57.9545 114.208C57.0358 114.208 56.2038 114.061 55.4585 113.766C54.7131 113.463 54.0805 113.077 53.5605 112.609L54.1065 111.725C54.1758 111.612 54.2581 111.526 54.3535 111.465C54.4488 111.404 54.5701 111.374 54.7175 111.374C54.8735 111.374 55.0381 111.435 55.2115 111.556C55.3848 111.677 55.5928 111.812 55.8355 111.959C56.0868 112.106 56.3901 112.241 56.7455 112.362C57.1008 112.483 57.5428 112.544 58.0715 112.544C58.5221 112.544 58.9165 112.488 59.2545 112.375C59.5925 112.254 59.8741 112.093 60.0995 111.894C60.3248 111.695 60.4895 111.465 60.5935 111.205C60.7061 110.945 60.7625 110.668 60.7625 110.373C60.7625 110.009 60.6628 109.71 60.4635 109.476C60.2728 109.233 60.0171 109.03 59.6965 108.865C59.3758 108.692 59.0075 108.544 58.5915 108.423C58.1841 108.293 57.7638 108.159 57.3305 108.02C56.9058 107.881 56.4855 107.725 56.0695 107.552C55.6621 107.37 55.2981 107.145 54.9775 106.876C54.6568 106.607 54.3968 106.278 54.1975 105.888C54.0068 105.489 53.9115 105.008 53.9115 104.445C53.9115 103.942 54.0155 103.461 54.2235 103.002C54.4315 102.534 54.7348 102.127 55.1335 101.78C55.5321 101.425 56.0218 101.143 56.6025 100.935C57.1831 100.727 57.8461 100.623 58.5915 100.623C59.4581 100.623 60.2338 100.762 60.9185 101.039C61.6118 101.308 62.2098 101.68 62.7125 102.157L62.1925 103.002ZM69.8135 114.208C68.7735 114.208 67.9718 113.918 67.4085 113.337C66.8538 112.756 66.5765 111.92 66.5765 110.828V102.768H64.9905C64.8518 102.768 64.7348 102.729 64.6395 102.651C64.5442 102.564 64.4965 102.434 64.4965 102.261V101.338L66.6545 101.065L67.1875 96.996C67.2135 96.866 67.2698 96.762 67.3565 96.684C67.4518 96.5973 67.5732 96.554 67.7205 96.554H68.8905V101.091H72.6995V102.768H68.8905V110.672C68.8905 111.227 69.0248 111.638 69.2935 111.907C69.5622 112.176 69.9088 112.31 70.3335 112.31C70.5762 112.31 70.7842 112.28 70.9575 112.219C71.1395 112.15 71.2955 112.076 71.4255 111.998C71.5555 111.92 71.6638 111.851 71.7505 111.79C71.8458 111.721 71.9282 111.686 71.9975 111.686C72.1188 111.686 72.2272 111.76 72.3225 111.907L72.9985 113.012C72.5998 113.385 72.1188 113.679 71.5555 113.896C70.9922 114.104 70.4115 114.208 69.8135 114.208ZM83.8267 105.979C83.8267 105.442 83.7487 104.952 83.5927 104.51C83.4454 104.059 83.2244 103.674 82.9297 103.353C82.6437 103.024 82.2927 102.772 81.8767 102.599C81.4607 102.417 80.9884 102.326 80.4597 102.326C79.3504 102.326 78.4707 102.651 77.8207 103.301C77.1794 103.942 76.7807 104.835 76.6247 105.979H83.8267ZM85.6987 112.154C85.4127 112.501 85.0704 112.804 84.6717 113.064C84.273 113.315 83.844 113.523 83.3847 113.688C82.934 113.853 82.466 113.974 81.9807 114.052C81.4954 114.139 81.0144 114.182 80.5377 114.182C79.6277 114.182 78.787 114.03 78.0157 113.727C77.253 113.415 76.59 112.964 76.0267 112.375C75.472 111.777 75.0387 111.04 74.7267 110.165C74.4147 109.29 74.2587 108.284 74.2587 107.149C74.2587 106.23 74.3974 105.372 74.6747 104.575C74.9607 103.778 75.368 103.089 75.8967 102.508C76.4254 101.919 77.071 101.459 77.8337 101.13C78.5964 100.792 79.4544 100.623 80.4077 100.623C81.1964 100.623 81.9244 100.757 82.5917 101.026C83.2677 101.286 83.8484 101.667 84.3337 102.17C84.8277 102.664 85.2134 103.279 85.4907 104.016C85.768 104.744 85.9067 105.576 85.9067 106.512C85.9067 106.876 85.8677 107.119 85.7897 107.24C85.7117 107.361 85.5644 107.422 85.3477 107.422H76.5467C76.5727 108.254 76.6854 108.978 76.8847 109.593C77.0927 110.208 77.3787 110.724 77.7427 111.14C78.1067 111.547 78.54 111.855 79.0427 112.063C79.5454 112.262 80.1087 112.362 80.7327 112.362C81.3134 112.362 81.8117 112.297 82.2277 112.167C82.6524 112.028 83.0164 111.881 83.3197 111.725C83.623 111.569 83.8744 111.426 84.0737 111.296C84.2817 111.157 84.4594 111.088 84.6067 111.088C84.7974 111.088 84.9447 111.162 85.0487 111.309L85.6987 112.154ZM90.946 103.47C91.362 102.569 91.8733 101.867 92.48 101.364C93.0867 100.853 93.8277 100.597 94.703 100.597C94.9803 100.597 95.2447 100.627 95.496 100.688C95.756 100.749 95.9857 100.844 96.185 100.974L96.016 102.703C95.964 102.92 95.834 103.028 95.626 103.028C95.5047 103.028 95.327 103.002 95.093 102.95C94.859 102.898 94.5947 102.872 94.3 102.872C93.884 102.872 93.5113 102.933 93.182 103.054C92.8613 103.175 92.571 103.357 92.311 103.6C92.0597 103.834 91.83 104.129 91.622 104.484C91.4227 104.831 91.2407 105.229 91.076 105.68V114H88.749V100.831H90.075C90.3263 100.831 90.4997 100.879 90.595 100.974C90.6903 101.069 90.7553 101.234 90.79 101.468L90.946 103.47ZM106.852 103.171C106.782 103.266 106.713 103.34 106.644 103.392C106.574 103.444 106.479 103.47 106.358 103.47C106.228 103.47 106.085 103.418 105.929 103.314C105.773 103.201 105.578 103.08 105.344 102.95C105.118 102.82 104.837 102.703 104.499 102.599C104.169 102.486 103.762 102.43 103.277 102.43C102.627 102.43 102.055 102.547 101.561 102.781C101.067 103.006 100.651 103.336 100.313 103.769C99.9832 104.202 99.7318 104.727 99.5585 105.342C99.3938 105.957 99.3115 106.646 99.3115 107.409C99.3115 108.206 99.4025 108.917 99.5845 109.541C99.7665 110.156 100.022 110.676 100.352 111.101C100.69 111.517 101.093 111.838 101.561 112.063C102.037 112.28 102.57 112.388 103.16 112.388C103.723 112.388 104.187 112.323 104.551 112.193C104.915 112.054 105.214 111.903 105.448 111.738C105.69 111.573 105.89 111.426 106.046 111.296C106.21 111.157 106.371 111.088 106.527 111.088C106.717 111.088 106.865 111.162 106.969 111.309L107.619 112.154C107.333 112.509 107.008 112.813 106.644 113.064C106.28 113.315 105.885 113.528 105.461 113.701C105.045 113.866 104.607 113.987 104.148 114.065C103.688 114.143 103.22 114.182 102.744 114.182C101.92 114.182 101.153 114.03 100.443 113.727C99.7405 113.424 99.1295 112.986 98.6095 112.414C98.0895 111.833 97.6822 111.123 97.3875 110.282C97.0928 109.441 96.9455 108.484 96.9455 107.409C96.9455 106.43 97.0798 105.524 97.3485 104.692C97.6258 103.86 98.0245 103.145 98.5445 102.547C99.0732 101.94 99.7188 101.468 100.482 101.13C101.253 100.792 102.137 100.623 103.134 100.623C104.061 100.623 104.876 100.775 105.578 101.078C106.288 101.373 106.917 101.793 107.463 102.339L106.852 103.171ZM117.24 108.072C116.174 108.107 115.264 108.193 114.51 108.332C113.764 108.462 113.153 108.635 112.677 108.852C112.209 109.069 111.866 109.324 111.65 109.619C111.442 109.914 111.338 110.243 111.338 110.607C111.338 110.954 111.394 111.253 111.507 111.504C111.619 111.755 111.771 111.963 111.962 112.128C112.161 112.284 112.391 112.401 112.651 112.479C112.919 112.548 113.205 112.583 113.509 112.583C113.916 112.583 114.289 112.544 114.627 112.466C114.965 112.379 115.281 112.258 115.576 112.102C115.879 111.946 116.165 111.76 116.434 111.543C116.711 111.326 116.98 111.079 117.24 110.802V108.072ZM109.765 102.69C110.493 101.988 111.277 101.464 112.118 101.117C112.958 100.77 113.89 100.597 114.913 100.597C115.649 100.597 116.304 100.718 116.876 100.961C117.448 101.204 117.929 101.542 118.319 101.975C118.709 102.408 119.003 102.933 119.203 103.548C119.402 104.163 119.502 104.839 119.502 105.576V114H118.475C118.249 114 118.076 113.965 117.955 113.896C117.833 113.818 117.738 113.671 117.669 113.454L117.409 112.206C117.062 112.527 116.724 112.813 116.395 113.064C116.065 113.307 115.719 113.515 115.355 113.688C114.991 113.853 114.601 113.978 114.185 114.065C113.777 114.16 113.322 114.208 112.82 114.208C112.308 114.208 111.827 114.139 111.377 114C110.926 113.853 110.532 113.636 110.194 113.35C109.864 113.064 109.6 112.704 109.401 112.271C109.21 111.829 109.115 111.309 109.115 110.711C109.115 110.191 109.258 109.693 109.544 109.216C109.83 108.731 110.293 108.302 110.935 107.929C111.576 107.556 112.412 107.253 113.444 107.019C114.475 106.776 115.74 106.638 117.24 106.603V105.576C117.24 104.553 117.019 103.782 116.577 103.262C116.135 102.733 115.489 102.469 114.64 102.469C114.068 102.469 113.587 102.543 113.197 102.69C112.815 102.829 112.482 102.989 112.196 103.171C111.918 103.344 111.676 103.505 111.468 103.652C111.268 103.791 111.069 103.86 110.87 103.86C110.714 103.86 110.579 103.821 110.467 103.743C110.354 103.656 110.259 103.552 110.181 103.431L109.765 102.69ZM125.418 94.851V114H123.104V94.851H125.418ZM136.841 103.002C136.737 103.193 136.577 103.288 136.36 103.288C136.23 103.288 136.083 103.24 135.918 103.145C135.753 103.05 135.55 102.946 135.307 102.833C135.073 102.712 134.791 102.603 134.462 102.508C134.133 102.404 133.743 102.352 133.292 102.352C132.902 102.352 132.551 102.404 132.239 102.508C131.927 102.603 131.658 102.738 131.433 102.911C131.216 103.084 131.047 103.288 130.926 103.522C130.813 103.747 130.757 103.994 130.757 104.263C130.757 104.601 130.852 104.883 131.043 105.108C131.242 105.333 131.502 105.528 131.823 105.693C132.144 105.858 132.508 106.005 132.915 106.135C133.322 106.256 133.738 106.391 134.163 106.538C134.596 106.677 135.017 106.833 135.424 107.006C135.831 107.179 136.195 107.396 136.516 107.656C136.837 107.916 137.092 108.237 137.283 108.618C137.482 108.991 137.582 109.441 137.582 109.97C137.582 110.577 137.474 111.14 137.257 111.66C137.04 112.171 136.72 112.618 136.295 112.999C135.87 113.372 135.35 113.666 134.735 113.883C134.12 114.1 133.409 114.208 132.603 114.208C131.684 114.208 130.852 114.061 130.107 113.766C129.362 113.463 128.729 113.077 128.209 112.609L128.755 111.725C128.824 111.612 128.907 111.526 129.002 111.465C129.097 111.404 129.219 111.374 129.366 111.374C129.522 111.374 129.687 111.435 129.86 111.556C130.033 111.677 130.241 111.812 130.484 111.959C130.735 112.106 131.039 112.241 131.394 112.362C131.749 112.483 132.191 112.544 132.72 112.544C133.171 112.544 133.565 112.488 133.903 112.375C134.241 112.254 134.523 112.093 134.748 111.894C134.973 111.695 135.138 111.465 135.242 111.205C135.355 110.945 135.411 110.668 135.411 110.373C135.411 110.009 135.311 109.71 135.112 109.476C134.921 109.233 134.666 109.03 134.345 108.865C134.024 108.692 133.656 108.544 133.24 108.423C132.833 108.293 132.412 108.159 131.979 108.02C131.554 107.881 131.134 107.725 130.718 107.552C130.311 107.37 129.947 107.145 129.626 106.876C129.305 106.607 129.045 106.278 128.846 105.888C128.655 105.489 128.56 105.008 128.56 104.445C128.56 103.942 128.664 103.461 128.872 103.002C129.08 102.534 129.383 102.127 129.782 101.78C130.181 101.425 130.67 101.143 131.251 100.935C131.832 100.727 132.495 100.623 133.24 100.623C134.107 100.623 134.882 100.762 135.567 101.039C136.26 101.308 136.858 101.68 137.361 102.157L136.841 103.002ZM148.089 103.002C147.985 103.193 147.825 103.288 147.608 103.288C147.478 103.288 147.331 103.24 147.166 103.145C147.001 103.05 146.798 102.946 146.555 102.833C146.321 102.712 146.039 102.603 145.71 102.508C145.381 102.404 144.991 102.352 144.54 102.352C144.15 102.352 143.799 102.404 143.487 102.508C143.175 102.603 142.906 102.738 142.681 102.911C142.464 103.084 142.295 103.288 142.174 103.522C142.061 103.747 142.005 103.994 142.005 104.263C142.005 104.601 142.1 104.883 142.291 105.108C142.49 105.333 142.75 105.528 143.071 105.693C143.392 105.858 143.756 106.005 144.163 106.135C144.57 106.256 144.986 106.391 145.411 106.538C145.844 106.677 146.265 106.833 146.672 107.006C147.079 107.179 147.443 107.396 147.764 107.656C148.085 107.916 148.34 108.237 148.531 108.618C148.73 108.991 148.83 109.441 148.83 109.97C148.83 110.577 148.722 111.14 148.505 111.66C148.288 112.171 147.968 112.618 147.543 112.999C147.118 113.372 146.598 113.666 145.983 113.883C145.368 114.1 144.657 114.208 143.851 114.208C142.932 114.208 142.1 114.061 141.355 113.766C140.61 113.463 139.977 113.077 139.457 112.609L140.003 111.725C140.072 111.612 140.155 111.526 140.25 111.465C140.345 111.404 140.467 111.374 140.614 111.374C140.77 111.374 140.935 111.435 141.108 111.556C141.281 111.677 141.489 111.812 141.732 111.959C141.983 112.106 142.287 112.241 142.642 112.362C142.997 112.483 143.439 112.544 143.968 112.544C144.419 112.544 144.813 112.488 145.151 112.375C145.489 112.254 145.771 112.093 145.996 111.894C146.221 111.695 146.386 111.465 146.49 111.205C146.603 110.945 146.659 110.668 146.659 110.373C146.659 110.009 146.559 109.71 146.36 109.476C146.169 109.233 145.914 109.03 145.593 108.865C145.272 108.692 144.904 108.544 144.488 108.423C144.081 108.293 143.66 108.159 143.227 108.02C142.802 107.881 142.382 107.725 141.966 107.552C141.559 107.37 141.195 107.145 140.874 106.876C140.553 106.607 140.293 106.278 140.094 105.888C139.903 105.489 139.808 105.008 139.808 104.445C139.808 103.942 139.912 103.461 140.12 103.002C140.328 102.534 140.631 102.127 141.03 101.78C141.429 101.425 141.918 101.143 142.499 100.935C143.08 100.727 143.743 100.623 144.488 100.623C145.355 100.623 146.13 100.762 146.815 101.039C147.508 101.308 148.106 101.68 148.609 102.157L148.089 103.002Z" fill="white"/>
</g>
<defs>
<linearGradient id="paint0_linear_221_800" x1="205" y1="135" x2="106.046" y2="-55.1782" gradientUnits="userSpaceOnUse">
<stop stop-color="#FF6188"/>
<stop offset="1" stop-color="#FFB199"/>
</linearGradient>
<clipPath id="clip0_221_800">
<rect width="205" height="135" fill="white"/>
</clipPath>
<clipPath id="clip1_221_800">
<rect width="190.11" height="190.11" fill="white" transform="translate(-75.9326 58.2108) rotate(-21.4135)"/>
</clipPath>
</defs>
</svg>
