<svg width="150" height="15" viewBox="0 0 150 15" fill="none" xmlns="http://www.w3.org/2000/svg">
<path d="M1 9.42997C3.53425 6.46108 9.21096 1.41398 11.6438 4.97664C14.6849 9.42997 17.726 12.8937 21.274 13.8833C24.1123 14.675 28.8767 11.2443 30.9041 9.42997C30.9041 9.42997 41.5479 1.0345 43.5753 1.01814C45.6027 1.00178 49.9616 4.97664 55.2329 4.97664C61.8219 4.97664 66.8904 4.97662 69.9315 9.42997C72.9726 13.8833 81.0822 13.8833 84.1233 13.8833C86.5562 13.8833 101.735 5.51184 101.735 5.51184C101.735 5.51184 111.696 1.01814 114.534 1.01814C118.082 1.01814 121.104 0.538377 124.652 4.51323C130.858 11.4665 133.245 13.0014 142.794 8.50766L149 4.97664" stroke="url(#paint0_linear_14_246)" stroke-width="1.5" stroke-linecap="round"/>
<defs>
<linearGradient id="paint0_linear_14_246" x1="142.5" y1="7" x2="-30" y2="7.99999" gradientUnits="userSpaceOnUse">
<stop stop-color="#195BF9"/>
<stop offset="1" stop-color="#0033AD" stop-opacity="0"/>
</linearGradient>
</defs>
</svg>
