<svg width="121" height="24" viewBox="0 0 121 24" fill="none" xmlns="http://www.w3.org/2000/svg">
<path d="M11.975 0.00278649V3.63118H9.96561C9.96561 3.63118 8.1514 3.37168 8.1514 5.12158V7.9738H11.975L11.5203 11.9122H8.1514V22.9444H3.7445V11.8617H0.763672V7.9738H3.87539V4.66919C3.87539 4.66919 3.48728 2.85498 5.10629 1.36457C6.72759 -0.125831 8.8656 0.00278649 8.8656 0.00278649H11.975Z" fill="#8C8A97"/>
<path d="M22.6003 8.03805V10.0153C21.4751 8.53638 19.9043 7.61549 18.1636 7.61549C14.7464 7.61549 11.9746 10.6284 11.9746 15.5383C11.9746 20.416 14.7464 23.4611 18.1636 23.4611C19.9204 23.4611 21.5049 22.5241 22.6325 21.0199L22.6026 22.9421H26.8465V8.03576H22.6003V8.03805ZM22.3638 17.0149C22.3638 18.5191 21.087 19.9314 19.5093 19.9314C17.9316 19.9314 16.6548 18.5191 16.6548 17.0149V14.1627C16.6548 12.6585 17.9316 11.2462 19.5093 11.2462C21.087 11.2462 22.3638 12.6585 22.3638 14.1627V17.0149Z" fill="#8C8A97"/>
<path d="M61.5235 23.0408V21.0636C62.6488 22.5425 64.2195 23.4633 65.9603 23.4633C69.3774 23.4633 72.1493 20.4504 72.1493 15.5406C72.1493 10.6629 69.3774 7.61776 65.9603 7.61776C64.2035 7.61776 62.6189 8.55471 61.4914 10.0589L61.5212 0.213964L57.1074 0.710008V22.9719L61.5235 23.0408ZM61.7601 14.0662C61.7601 12.5621 63.0369 11.1497 64.6145 11.1497C66.1922 11.1497 67.4691 12.5621 67.4691 14.0662V16.9184C67.4691 18.4226 66.1922 19.835 64.6145 19.835C63.0369 19.835 61.7601 18.4226 61.7601 16.9184V14.0662Z" fill="#8C8A97"/>
<path d="M36.4388 19.8487C36.4388 19.8487 33.0354 20.0439 33.0354 15.637V15.3958C33.0354 10.9889 36.4388 11.1841 36.4388 11.1841C38.7399 11.152 39.5505 11.9626 39.5505 11.9626L40.6206 8.75449C38.7743 7.39269 33.2008 7.16763 30.7045 9.46639C28.5458 11.4574 28.5458 14.6839 28.5849 15.5176C28.5458 16.3512 28.5458 19.5777 30.7045 21.5687C33.1985 23.8698 38.772 23.6425 40.6206 22.2807L39.5505 19.0725C39.5505 19.0702 38.7399 19.8808 36.4388 19.8487Z" fill="#8C8A97"/>
<path d="M55.2651 17.1114C55.2651 17.1114 57.0471 7.77861 48.525 7.72809C40.0028 7.67757 41.2337 16.1722 41.2337 16.1722C41.4289 21.3254 43.7942 22.8158 47.8429 23.3004C51.8939 23.7872 54.9711 22.2302 54.9711 22.2302L54.0319 19.2173C54.0319 19.2173 50.7594 20.2208 48.1667 19.9958C45.574 19.7684 45.7692 17.1114 45.7692 17.1114H55.2651ZM45.7072 14.0985C45.7072 14.0985 45.4799 10.7939 48.4607 10.7939C51.4415 10.7939 51.2141 14.0985 51.2141 14.0985H45.7072Z" fill="#8C8A97"/>
<path d="M80.9309 7.81986C75.3827 7.81986 73.5156 11.1658 73.5156 15.6416C73.5156 20.3884 75.9223 23.4634 80.9309 23.4634C85.0255 23.4634 88.3462 20.7122 88.3462 15.6416C88.3439 11.322 86.2266 7.81986 80.9309 7.81986ZM83.8199 16.9345C83.8199 18.4387 82.5086 19.851 80.8919 19.851C79.2752 19.851 77.9639 18.4387 77.9639 16.9345V14.0823C77.9639 12.5781 79.2752 11.1658 80.8919 11.1658C82.5086 11.1658 83.8199 12.5781 83.8199 14.0823V16.9345Z" fill="#8C8A97"/>
<path d="M97.302 7.81986C91.7537 7.81986 89.8867 11.1658 89.8867 15.6416C89.8867 20.3884 92.2934 23.4634 97.302 23.4634C101.397 23.4634 104.717 20.7122 104.717 15.6416C104.717 11.322 102.6 7.81986 97.302 7.81986ZM100.193 16.9345C100.193 18.4387 98.882 19.851 97.2653 19.851C95.6485 19.851 94.3373 18.4387 94.3373 16.9345V14.0823C94.3373 12.5781 95.6485 11.1658 97.2653 11.1658C98.882 11.1658 100.193 12.5781 100.193 14.0823V16.9345Z" fill="#8C8A97"/>
<path d="M120.264 23.0086L115.416 15.5038L120.048 8.00126H115.311L110.785 14.7184V0.135875L106.334 0.604362V23.0086H110.785V15.3752L115.669 23.0086H120.264Z" fill="#8C8A97"/>
</svg>
