<svg width="103" height="34" viewBox="0 0 103 34" fill="none" xmlns="http://www.w3.org/2000/svg">
<path d="M25.9619 11.7927H14.0784V15.3189H22.506C22.0901 20.2641 17.9757 22.3723 14.0927 22.3723C9.124 22.3723 4.7894 18.4628 4.7894 12.9844C4.7894 7.64672 8.92215 3.53641 14.1039 3.53641C18.1021 3.53641 20.458 6.08497 20.458 6.08497L22.927 3.52824C22.927 3.52824 19.7576 0 13.9785 0C6.61927 0 0.925781 6.21136 0.925781 12.9212C0.925781 19.4955 6.28184 25.9067 14.1671 25.9067C21.1022 25.9067 26.179 21.1561 26.179 14.1303C26.177 12.649 25.9619 11.7927 25.9619 11.7927Z" fill="#8C8A97"/>
<path d="M35.6967 9.23907C30.8208 9.23907 27.3262 13.0507 27.3262 17.4974C27.3262 22.0094 30.7158 25.8924 35.7538 25.8924C40.3147 25.8924 44.0519 22.406 44.0519 17.5943C44.0519 12.0792 39.7051 9.23907 35.6967 9.23907ZM35.7446 12.5094C38.1423 12.5094 40.4146 14.4483 40.4146 17.5718C40.4146 20.6291 38.1514 22.6231 35.7334 22.6231C33.0757 22.6231 30.9798 20.4945 30.9798 17.5474C30.9798 14.6634 33.0502 12.5094 35.7446 12.5094Z" fill="#8C8A97"/>
<path d="M53.9017 9.23907C49.0258 9.23907 45.5312 13.0507 45.5312 17.4974C45.5312 22.0094 48.9208 25.8924 53.9588 25.8924C58.5198 25.8924 62.257 22.406 62.257 17.5943C62.257 12.0792 57.9101 9.23907 53.9017 9.23907ZM53.9507 12.5094C56.3484 12.5094 58.6207 14.4483 58.6207 17.5718C58.6207 20.6291 56.3575 22.6231 53.9395 22.6231C51.2818 22.6231 49.1859 20.4945 49.1859 17.5474C49.1859 14.6634 51.2563 12.5094 53.9507 12.5094Z" fill="#8C8A97"/>
<path d="M71.757 9.24825C67.2817 9.24825 63.7637 13.1679 63.7637 17.5678C63.7637 22.5793 67.8424 25.9026 71.6805 25.9026C74.0538 25.9026 75.3158 24.9607 76.2476 23.879V25.5213C76.2476 28.3941 74.5033 30.1139 71.8701 30.1139C69.3267 30.1139 68.0514 28.2228 67.6079 27.1494L64.408 28.4869C65.5436 30.8876 67.8281 33.3903 71.8967 33.3903C76.3464 33.3903 79.7381 30.5869 79.7381 24.7089V9.74676H76.2465V11.1577C75.1741 10.0016 73.7061 9.24825 71.757 9.24825ZM72.0812 12.5114C74.276 12.5114 76.5289 14.3851 76.5289 17.5851C76.5289 20.8371 74.2801 22.6302 72.0332 22.6302C69.6468 22.6302 67.4275 20.6923 67.4275 17.6167C67.4265 14.4198 69.7324 12.5114 72.0812 12.5114Z" fill="#8C8A97"/>
<path d="M95.2592 9.22786C91.0378 9.22786 87.4922 12.5869 87.4922 17.5433C87.4922 22.7883 91.4435 25.8985 95.6639 25.8985C99.187 25.8985 101.349 23.9708 102.64 22.2449L99.761 20.3294C99.0137 21.4885 97.7649 22.6211 95.6812 22.6211C93.3406 22.6211 92.2641 21.3397 91.5974 20.098L102.762 15.4657L102.182 14.1079C101.106 11.4492 98.5886 9.22786 95.2592 9.22786ZM95.405 12.4299C96.9259 12.4299 98.0208 13.2383 98.4857 14.2088L91.0296 17.3252C90.7085 14.9122 92.994 12.4299 95.405 12.4299Z" fill="#8C8A97"/>
<path d="M82.1719 25.4041H85.8387V0.861453H82.1719V25.4041Z" fill="#8C8A97"/>
</svg>
