<svg width="196" height="156" viewBox="0 0 196 156" fill="none" xmlns="http://www.w3.org/2000/svg">
<g filter="url(#filter0_b_14_193)">
<rect width="196" height="156" rx="18" fill="white" fill-opacity="0.12"/>
<path d="M21.5625 28C23.9609 28 25.4062 26.7969 25.4062 24.8125C25.4062 23.3125 24.375 22.2266 22.8438 22.0547V21.9922C23.9688 21.8047 24.8516 20.7344 24.8516 19.5391C24.8516 17.8359 23.5391 16.7266 21.5391 16.7266H17.0391V28H21.5625ZM18.7891 18.1562H21.1172C22.3828 18.1562 23.1016 18.7344 23.1016 19.7812C23.1016 20.8984 22.2656 21.5234 20.75 21.5234H18.7891V18.1562ZM18.7891 26.5703V22.8594H21.1016C22.7578 22.8594 23.6172 23.4844 23.6172 24.7031C23.6172 25.9219 22.7812 26.5703 21.2031 26.5703H18.7891ZM28.1094 18.4531C28.6484 18.4531 29.0781 18.0156 29.0781 17.4844C29.0781 16.9453 28.6484 16.5156 28.1094 16.5156C27.5703 16.5156 27.1328 16.9453 27.1328 17.4844C27.1328 18.0156 27.5703 18.4531 28.1094 18.4531ZM27.2656 28H28.9531V19.7812H27.2656V28ZM31.6719 17.8359V19.7812H30.4766V21.1172H31.6719V25.8359C31.6719 27.4219 32.3203 28.0547 33.9844 28.0547C34.3594 28.0547 34.7344 28.0234 34.9219 27.9766V26.6406C34.8125 26.6641 34.5391 26.6797 34.3672 26.6797C33.6797 26.6797 33.3672 26.3594 33.3672 25.6484V21.1172H34.9297V19.7812H33.3672V17.8359H31.6719ZM43.6719 22.6094C43.5234 20.9922 42.2344 19.6328 40.1172 19.6328C37.7812 19.6328 36.25 21.2812 36.25 23.8906C36.25 26.5469 37.7812 28.1562 40.1328 28.1562C42.1094 28.1562 43.5078 26.9688 43.6875 25.2188H42.0625C41.8672 26.1719 41.1875 26.7422 40.1484 26.7422C38.8359 26.7422 37.9688 25.6953 37.9688 23.8906C37.9688 22.125 38.8281 21.0391 40.1328 21.0391C41.2344 21.0391 41.8906 21.7344 42.0625 22.6094H43.6719ZM48.9141 28.1562C51.2656 28.1562 52.8125 26.5391 52.8125 23.8906C52.8125 21.25 51.2578 19.6328 48.9141 19.6328C46.5703 19.6328 45.0156 21.25 45.0156 23.8906C45.0156 26.5391 46.5625 28.1562 48.9141 28.1562ZM48.9141 26.7656C47.5938 26.7656 46.7344 25.7188 46.7344 23.8906C46.7344 22.0703 47.5938 21.0234 48.9141 21.0234C50.2344 21.0234 51.0938 22.0703 51.0938 23.8906C51.0938 25.7188 50.2422 26.7656 48.9141 26.7656ZM55.5156 18.4531C56.0547 18.4531 56.4844 18.0156 56.4844 17.4844C56.4844 16.9453 56.0547 16.5156 55.5156 16.5156C54.9766 16.5156 54.5391 16.9453 54.5391 17.4844C54.5391 18.0156 54.9766 18.4531 55.5156 18.4531ZM54.6719 28H56.3594V19.7812H54.6719V28ZM58.5859 28H60.2734V23.2109C60.2734 21.9375 61.0391 21.0938 62.2266 21.0938C63.3984 21.0938 63.9766 21.7734 63.9766 23.0078V28H65.6719V22.6797C65.6719 20.7969 64.6328 19.6406 62.8203 19.6406C61.5547 19.6406 60.6797 20.2188 60.2344 21.1562H60.1953V19.7812H58.5859V28Z" fill="white"/>
<path opacity="0.6" d="M20.0137 46C21.8125 46 22.8789 45.1152 22.8789 43.627C22.8789 42.502 22.1406 41.6934 20.9922 41.5469V41.5C21.8066 41.3535 22.4512 40.5332 22.4512 39.6543C22.4512 38.3887 21.4727 37.5449 20.0254 37.5449H16.8203V46H20.0137ZM17.875 38.4766H19.7852C20.8105 38.4766 21.3848 38.9395 21.3848 39.7773C21.3848 40.6914 20.7051 41.1895 19.457 41.1895H17.875V38.4766ZM17.875 45.0684V42.0977H19.7559C21.1035 42.0977 21.7949 42.5957 21.7949 43.5742C21.7949 44.5527 21.127 45.0684 19.8555 45.0684H17.875ZM27.7676 46V38.4941H30.4336V37.5449H24.0469V38.4941H26.7129V46H27.7676ZM35 46.1406C36.8691 46.1406 38.123 45.209 38.5098 43.5391H37.4434C37.1387 44.5703 36.248 45.168 35.0059 45.168C33.3359 45.168 32.2754 43.8438 32.2754 41.7695C32.2754 39.7129 33.3477 38.377 35 38.377C36.207 38.377 37.1738 39.1035 37.4434 40.2109H38.5098C38.2402 38.5234 36.8398 37.4043 35 37.4043C32.6855 37.4043 31.1914 39.1152 31.1914 41.7695C31.1914 44.4473 32.668 46.1406 35 46.1406Z" fill="white"/>
<path d="M16 88.1389C17.9048 85.8105 22.9714 81.1537 28 81.1537C34.2857 81.1537 46.2857 90.3218 51.4286 92.0681C56.5714 93.8144 76 71.5491 84 69.8028C92 68.0565 102.286 103.712 115.429 103.991C136 104.428 136 88.6651 142.857 79.497C149.714 70.3289 175.429 67.4366 180 67" stroke="#F7931A" stroke-width="2" stroke-linecap="round"/>
<path d="M78.802 131.144C78.802 131.657 78.6667 132.133 78.396 132.572C78.1347 133.001 77.7427 133.356 77.22 133.636C76.7067 133.907 76.0953 134.056 75.386 134.084V135.218H74.49V134.07C73.5007 133.986 72.7027 133.692 72.096 133.188C71.4893 132.675 71.1673 131.979 71.13 131.102H73.678C73.734 131.662 74.0047 132.021 74.49 132.18V129.968C73.762 129.781 73.1787 129.599 72.74 129.422C72.3107 129.245 71.9327 128.96 71.606 128.568C71.2793 128.176 71.116 127.639 71.116 126.958C71.116 126.109 71.4287 125.427 72.054 124.914C72.6887 124.401 73.5007 124.111 74.49 124.046V122.912H75.386V124.046C76.366 124.121 77.1407 124.405 77.71 124.9C78.2793 125.395 78.5967 126.081 78.662 126.958H76.1C76.044 126.454 75.806 126.127 75.386 125.978V128.148C76.1607 128.363 76.758 128.554 77.178 128.722C77.598 128.89 77.9713 129.17 78.298 129.562C78.634 129.945 78.802 130.472 78.802 131.144ZM73.65 126.846C73.65 127.079 73.72 127.275 73.86 127.434C74.0093 127.593 74.2193 127.733 74.49 127.854V125.908C74.2287 125.955 74.0233 126.057 73.874 126.216C73.7247 126.365 73.65 126.575 73.65 126.846ZM75.386 132.222C75.666 132.175 75.8853 132.063 76.044 131.886C76.212 131.709 76.296 131.489 76.296 131.228C76.296 130.985 76.2167 130.789 76.058 130.64C75.9087 130.481 75.6847 130.346 75.386 130.234V132.222ZM80.9288 126.664C80.9662 125.665 81.2928 124.895 81.9088 124.354C82.5248 123.813 83.3602 123.542 84.4148 123.542C85.1148 123.542 85.7122 123.663 86.2068 123.906C86.7108 124.149 87.0888 124.48 87.3408 124.9C87.6022 125.32 87.7328 125.791 87.7328 126.314C87.7328 126.93 87.5788 127.434 87.2708 127.826C86.9628 128.209 86.6035 128.47 86.1928 128.61V128.666C86.7248 128.843 87.1448 129.137 87.4528 129.548C87.7608 129.959 87.9148 130.486 87.9148 131.13C87.9148 131.709 87.7795 132.222 87.5088 132.67C87.2475 133.109 86.8602 133.454 86.3468 133.706C85.8428 133.958 85.2408 134.084 84.5408 134.084C83.4208 134.084 82.5248 133.809 81.8528 133.258C81.1902 132.707 80.8402 131.877 80.8028 130.766H83.1268C83.1362 131.177 83.2528 131.503 83.4768 131.746C83.7008 131.979 84.0275 132.096 84.4568 132.096C84.8208 132.096 85.1008 131.993 85.2968 131.788C85.5022 131.573 85.6048 131.293 85.6048 130.948C85.6048 130.5 85.4602 130.178 85.1708 129.982C84.8908 129.777 84.4382 129.674 83.8128 129.674H83.3648V127.728H83.8128C84.2888 127.728 84.6715 127.649 84.9608 127.49C85.2595 127.322 85.4088 127.028 85.4088 126.608C85.4088 126.272 85.3155 126.011 85.1288 125.824C84.9422 125.637 84.6855 125.544 84.3588 125.544C84.0042 125.544 83.7382 125.651 83.5608 125.866C83.3928 126.081 83.2948 126.347 83.2668 126.664H80.9288ZM94.8754 126.538C94.8007 126.193 94.6701 125.936 94.4834 125.768C94.2967 125.591 94.0307 125.502 93.6854 125.502C93.1534 125.502 92.7707 125.735 92.5374 126.202C92.3041 126.659 92.1827 127.387 92.1734 128.386C92.3787 128.059 92.6727 127.803 93.0554 127.616C93.4474 127.429 93.8767 127.336 94.3434 127.336C95.2581 127.336 95.9907 127.625 96.5414 128.204C97.1014 128.783 97.3814 129.59 97.3814 130.626C97.3814 131.307 97.2414 131.905 96.9614 132.418C96.6907 132.931 96.2894 133.333 95.7574 133.622C95.2347 133.911 94.6141 134.056 93.8954 134.056C92.4581 134.056 91.4594 133.608 90.8994 132.712C90.3394 131.807 90.0594 130.509 90.0594 128.82C90.0594 127.047 90.3534 125.731 90.9414 124.872C91.5387 124.004 92.4907 123.57 93.7974 123.57C94.4974 123.57 95.0854 123.71 95.5614 123.99C96.0467 124.261 96.4107 124.62 96.6534 125.068C96.9054 125.516 97.0547 126.006 97.1014 126.538H94.8754ZM93.7694 129.226C93.3681 129.226 93.0321 129.347 92.7614 129.59C92.5001 129.823 92.3694 130.159 92.3694 130.598C92.3694 131.046 92.4907 131.396 92.7334 131.648C92.9854 131.9 93.3401 132.026 93.7974 132.026C94.2081 132.026 94.5301 131.905 94.7634 131.662C95.0061 131.41 95.1274 131.069 95.1274 130.64C95.1274 130.201 95.0107 129.856 94.7774 129.604C94.5441 129.352 94.2081 129.226 93.7694 129.226ZM105.759 125.572L102.245 134H99.7955L103.351 125.838H98.9975V123.794H105.759V125.572ZM108.908 128.512C108.03 128.045 107.592 127.313 107.592 126.314C107.592 125.81 107.722 125.353 107.984 124.942C108.245 124.522 108.642 124.191 109.174 123.948C109.706 123.696 110.359 123.57 111.134 123.57C111.908 123.57 112.557 123.696 113.08 123.948C113.612 124.191 114.008 124.522 114.27 124.942C114.531 125.353 114.662 125.81 114.662 126.314C114.662 126.818 114.54 127.257 114.298 127.63C114.064 128.003 113.747 128.297 113.346 128.512C113.85 128.755 114.237 129.091 114.508 129.52C114.778 129.94 114.914 130.435 114.914 131.004C114.914 131.667 114.746 132.241 114.41 132.726C114.074 133.202 113.616 133.566 113.038 133.818C112.468 134.07 111.834 134.196 111.134 134.196C110.434 134.196 109.794 134.07 109.216 133.818C108.646 133.566 108.194 133.202 107.858 132.726C107.522 132.241 107.354 131.667 107.354 131.004C107.354 130.425 107.489 129.926 107.76 129.506C108.03 129.077 108.413 128.745 108.908 128.512ZM112.338 126.678C112.338 126.295 112.226 126.001 112.002 125.796C111.787 125.581 111.498 125.474 111.134 125.474C110.77 125.474 110.476 125.581 110.252 125.796C110.037 126.011 109.93 126.309 109.93 126.692C109.93 127.056 110.042 127.345 110.266 127.56C110.49 127.765 110.779 127.868 111.134 127.868C111.488 127.868 111.778 127.761 112.002 127.546C112.226 127.331 112.338 127.042 112.338 126.678ZM111.134 129.548C110.695 129.548 110.34 129.669 110.07 129.912C109.799 130.145 109.664 130.472 109.664 130.892C109.664 131.284 109.794 131.606 110.056 131.858C110.326 132.11 110.686 132.236 111.134 132.236C111.582 132.236 111.932 132.11 112.184 131.858C112.445 131.606 112.576 131.284 112.576 130.892C112.576 130.481 112.44 130.155 112.17 129.912C111.908 129.669 111.563 129.548 111.134 129.548ZM116.806 128.75C116.806 127.145 117.114 125.88 117.73 124.956C118.355 124.032 119.358 123.57 120.74 123.57C122.121 123.57 123.12 124.032 123.736 124.956C124.361 125.88 124.674 127.145 124.674 128.75C124.674 130.374 124.361 131.648 123.736 132.572C123.12 133.496 122.121 133.958 120.74 133.958C119.358 133.958 118.355 133.496 117.73 132.572C117.114 131.648 116.806 130.374 116.806 128.75ZM122.322 128.75C122.322 127.807 122.219 127.084 122.014 126.58C121.808 126.067 121.384 125.81 120.74 125.81C120.096 125.81 119.671 126.067 119.466 126.58C119.26 127.084 119.158 127.807 119.158 128.75C119.158 129.385 119.195 129.912 119.27 130.332C119.344 130.743 119.494 131.079 119.718 131.34C119.951 131.592 120.292 131.718 120.74 131.718C121.188 131.718 121.524 131.592 121.748 131.34C121.981 131.079 122.135 130.743 122.21 130.332C122.284 129.912 122.322 129.385 122.322 128.75Z" fill="white"/>
<path d="M134.53 23.4397L136.472 21.4972C136.765 21.2047 137.237 21.2047 137.53 21.4972L139.472 23.4397C139.945 23.9122 139.607 24.7222 138.94 24.7222H135.055C134.387 24.7222 134.057 23.9122 134.53 23.4397Z" fill="#04DC00"/>
<path d="M148.329 27H149.398V19.9541H148.319L146.464 21.2725V22.3076L148.305 21.0381H148.329V27ZM153.399 27H154.469V19.9541H153.39L151.534 21.2725V22.3076L153.375 21.0381H153.399V27ZM157.249 27.0537C157.605 27.0537 157.889 26.7705 157.889 26.4141C157.889 26.0576 157.605 25.7744 157.249 25.7744C156.893 25.7744 156.609 26.0576 156.609 26.4141C156.609 26.7705 156.893 27.0537 157.249 27.0537ZM159.678 27H160.825L163.887 20.9014V19.9541H159.092V20.877H162.808V20.9014L159.678 27ZM167.873 27.1318C169.396 27.1318 170.461 26.1309 170.461 24.6904C170.461 23.3428 169.489 22.3662 168.142 22.3662C167.448 22.3662 166.862 22.6348 166.545 23.1084H166.521L166.735 20.877H170.051V19.9541H165.852L165.505 24.0166H166.462C166.76 23.499 167.263 23.2305 167.893 23.2305C168.771 23.2305 169.392 23.8506 169.392 24.7197C169.392 25.5986 168.776 26.2188 167.883 26.2188C167.097 26.2188 166.501 25.7402 166.423 25.042H165.378C165.441 26.2725 166.467 27.1318 167.873 27.1318ZM173.08 23.3086C174.018 23.3086 174.633 22.625 174.633 21.585C174.633 20.5352 174.013 19.8613 173.08 19.8613C172.147 19.8613 171.522 20.5352 171.522 21.585C171.522 22.6299 172.147 23.3086 173.08 23.3086ZM173.393 27L178.246 19.9541H177.362L172.499 27H173.393ZM173.08 22.6396C172.616 22.6396 172.304 22.2441 172.304 21.585C172.304 20.9258 172.616 20.5352 173.08 20.5352C173.549 20.5352 173.856 20.9258 173.856 21.585C173.856 22.2441 173.544 22.6396 173.08 22.6396ZM177.67 27.0879C178.603 27.0879 179.223 26.4043 179.223 25.3643C179.223 24.3145 178.603 23.6406 177.67 23.6406C176.737 23.6406 176.112 24.3145 176.112 25.3643C176.112 26.4092 176.732 27.0879 177.67 27.0879ZM177.67 26.4189C177.206 26.4189 176.889 26.0234 176.889 25.3643C176.889 24.7051 177.206 24.3145 177.67 24.3145C178.134 24.3145 178.446 24.7051 178.446 25.3643C178.446 26.0234 178.134 26.4189 177.67 26.4189Z" fill="#04DC00"/>
</g>
<defs>
<filter id="filter0_b_14_193" x="-80" y="-80" width="356" height="316" filterUnits="userSpaceOnUse" color-interpolation-filters="sRGB">
<feFlood flood-opacity="0" result="BackgroundImageFix"/>
<feGaussianBlur in="BackgroundImage" stdDeviation="40"/>
<feComposite in2="SourceAlpha" operator="in" result="effect1_backgroundBlur_14_193"/>
<feBlend mode="normal" in="SourceGraphic" in2="effect1_backgroundBlur_14_193" result="shape"/>
</filter>
</defs>
</svg>
