<svg width="150" height="15" viewBox="0 0 150 15" fill="none" xmlns="http://www.w3.org/2000/svg">
<path d="M1 5.57003C3.53425 8.53892 9.21096 13.586 11.6438 10.0234C14.6849 5.57003 17.726 2.10631 21.274 1.11668C24.1123 0.324981 28.8767 3.75571 30.9041 5.57003C30.9041 5.57003 41.5479 13.9655 43.5753 13.9819C45.6027 13.9982 49.9616 10.0234 55.2329 10.0234C61.8219 10.0234 66.8904 10.0234 69.9315 5.57003C72.9726 1.11668 81.0822 1.11668 84.1233 1.11668C86.5562 1.11668 101.735 9.48816 101.735 9.48816C101.735 9.48816 111.696 13.9819 114.534 13.9819C118.082 13.9819 121.104 14.4616 124.652 10.4868C130.858 3.53352 133.245 1.9986 142.794 6.49234L149 10.0234" stroke="url(#paint0_linear_14_262)" stroke-width="1.5" stroke-linecap="round"/>
<defs>
<linearGradient id="paint0_linear_14_262" x1="142.5" y1="7.99997" x2="-16" y2="7.99998" gradientUnits="userSpaceOnUse">
<stop stop-color="#00A478"/>
<stop offset="1" stop-color="#00A478" stop-opacity="0"/>
</linearGradient>
</defs>
</svg>
