<svg width="56" height="55" viewBox="0 0 56 55" fill="none" xmlns="http://www.w3.org/2000/svg">
<path d="M17.7575 23L28.4017 12.4L39.0458 23L45.2716 16.8L28.4017 0L11.5316 16.8L17.7575 23ZM0.887512 27.4L7.11335 21.2L13.3392 27.4L7.11335 33.6L0.887512 27.4ZM17.7575 31.8L28.4017 42.4L39.0458 31.8L45.2716 38L28.4017 54.8L11.5316 38L17.7575 31.8ZM43.4642 27.4L49.6899 21.2L55.9158 27.4L49.6899 33.6L43.4642 27.4Z" fill="black"/>
<path d="M34.728 27.4L28.4017 21.1L23.7825 25.7L23.2804 26.2L22.1758 27.3L28.5021 33.6L34.728 27.4Z" fill="black"/>
</svg>
