<svg width="28" height="28" viewBox="0 0 28 28" fill="none" xmlns="http://www.w3.org/2000/svg">
<g opacity="0.6">
<circle cx="14" cy="14" r="13.5" stroke="white"/>
<path d="M14.9712 20.6259H12.8571V11.2122H14.9712V20.6259ZM12.7266 8.76739C12.7266 8.44258 12.8281 8.17287 13.0311 7.95826C13.2399 7.74366 13.5357 7.63635 13.9185 7.63635C14.3013 7.63635 14.5971 7.74366 14.8059 7.95826C15.0147 8.17287 15.1191 8.44258 15.1191 8.76739C15.1191 9.0864 15.0147 9.35321 14.8059 9.56782C14.5971 9.77662 14.3013 9.88103 13.9185 9.88103C13.5357 9.88103 13.2399 9.77662 13.0311 9.56782C12.8281 9.35321 12.7266 9.0864 12.7266 8.76739Z" fill="white"/>
</g>
</svg>
