<svg width="106" height="30" viewBox="0 0 106 30" fill="none" xmlns="http://www.w3.org/2000/svg">
<path d="M8.48773 1.77662C9.22966 1.77662 12.4698 1.53607 16.4113 4.50668C16.5881 4.63999 16.6228 4.89213 16.4953 5.07182L14.6028 7.72363C14.4666 7.91491 14.2029 7.95258 14.0174 7.81057C13.6696 7.54104 13.0755 7.11502 12.38 6.75854C11.2613 6.18761 9.77451 5.70362 8.49063 5.70362C7.20675 5.70362 5.14616 6.12385 5.14616 8.14386C5.14616 9.76972 6.58365 10.3812 11.0178 11.4738C13.9044 12.2245 17.272 13.6098 17.272 18.0324C17.272 22.1014 13.8899 24.6662 9.22676 24.6662C6.41556 24.6662 2.56101 23.5997 0.114972 21.1334C-0.0328339 20.9827 -0.0386266 20.7421 0.100485 20.5827L2.22773 18.0758C2.37843 17.899 2.64795 17.8816 2.81894 18.041C3.62753 18.7975 5.99242 20.7131 9.21517 20.7131C13.0552 20.7131 12.9016 18.4004 12.9016 18.0555C12.9016 17.3194 12.3684 16.2877 10.473 15.7544C8.57757 15.2211 3.82461 14.3314 2.04514 12.2592C0.952539 10.9638 0.798932 9.52628 0.798932 8.44527C0.798932 6.00792 2.37553 1.77662 8.48773 1.77662Z" fill="#8C8A97"/>
<path d="M28.2929 7.07444C24.8702 7.07444 23.0212 9.59293 23.0212 9.59293V7.84824C23.0212 7.62219 22.8386 7.4367 22.6096 7.4367H19.0971C18.871 7.4367 18.6855 7.61929 18.6855 7.84824V28.9381C18.6855 29.1642 18.8681 29.3496 19.0971 29.3496H22.6241C22.8502 29.3496 23.0357 29.1671 23.0357 28.9381V22.368C23.0357 22.368 24.7514 24.6691 28.4784 24.6691C31.4345 24.6691 36.1991 22.2955 36.1991 15.9428C36.1962 9.59003 31.7156 7.07444 28.2929 7.07444ZM27.38 20.9189C24.989 20.9189 22.9603 18.8409 22.9603 15.8703C22.9603 14.059 24.0964 10.8942 27.3307 10.8942C30.5651 10.8942 31.7997 13.5025 31.7997 15.8703C31.7997 18.2381 30.4955 20.9189 27.38 20.9189Z" fill="#8C8A97"/>
<path d="M46.34 7.07444C40.8103 7.07444 37.3789 11.6216 37.3789 15.908C37.3789 20.6059 41.0248 24.7126 46.3748 24.7126C51.7248 24.7126 55.3706 20.4871 55.3706 15.908C55.3735 11.3289 51.8697 7.07444 46.34 7.07444ZM46.3748 20.9189C44.1171 20.9189 41.6537 19.0293 41.6537 15.8935C41.6537 12.7577 43.8766 10.8971 46.3748 10.8971C48.2934 10.8971 51.0234 12.4853 51.0234 15.8935C51.0234 19.3017 48.6353 20.9189 46.3748 20.9189Z" fill="#8C8A97"/>
<path d="M66.4333 10.7986V7.80479C66.4333 7.57874 66.2507 7.39325 66.0217 7.39325H62.0136V3.33584C62.0136 3.10978 61.831 2.9243 61.6021 2.9243H58.1475C57.9214 2.9243 57.7359 3.10689 57.7359 3.33584V7.39325H56.0463C55.8202 7.39325 55.6348 7.57584 55.6348 7.80479V10.7986C55.6348 11.0246 55.8173 11.2101 56.0463 11.2101H57.7359C57.7359 11.2101 57.7359 17.7802 57.7359 19.6872C57.7359 21.5942 58.6054 24.6141 62.3962 24.6141C64.1408 24.6141 65.6305 24.0026 66.1927 23.7417C66.3376 23.6751 66.4304 23.5302 66.4304 23.3679V20.4349C66.4304 20.1712 66.1348 20.0118 65.9174 20.1625C65.5204 20.4349 64.8741 20.7248 63.9177 20.7248C62.1063 20.7248 62.0107 19.493 62.0107 18.6236C62.0107 17.7541 62.0107 11.2101 62.0107 11.2101H66.0188C66.2507 11.2101 66.4333 11.0246 66.4333 10.7986Z" fill="#8C8A97"/>
<path d="M70.3606 5.33841C71.8348 5.33841 73.0298 4.14337 73.0298 2.66921C73.0298 1.19505 71.8348 1.14441e-05 70.3606 1.14441e-05C68.8864 1.14441e-05 67.6914 1.19505 67.6914 2.66921C67.6914 4.14337 68.8864 5.33841 70.3606 5.33841Z" fill="#8C8A97"/>
<path d="M72.0848 24.3243H68.6244C68.3984 24.3243 68.2129 24.1417 68.2129 23.9127V7.80478C68.2129 7.57873 68.3955 7.39324 68.6244 7.39324H72.0848C72.3109 7.39324 72.4963 7.57583 72.4963 7.80478V23.9127C72.4963 24.1388 72.3109 24.3243 72.0848 24.3243Z" fill="#8C8A97"/>
<path d="M76.3124 11.2101H74.6459C74.4199 11.2101 74.2344 11.0275 74.2344 10.7985V7.80473C74.2344 7.57868 74.417 7.39319 74.6459 7.39319H76.3124C76.3124 7.39319 76.3124 7.03092 76.3124 6.30638C76.3124 5.58185 76.4341 1.01726 81.5522 1.01726C84.0881 1.01726 84.9141 1.5853 84.9141 1.5853C84.9141 1.5853 84.9141 4.35593 84.9141 4.66313C84.9141 4.97034 84.8039 5.22537 84.4794 5.09786C84.1548 4.97034 83.1926 4.7182 82.4159 4.7182C81.6392 4.7182 80.5668 5.17031 80.5668 6.54693C80.5668 7.03672 80.5668 7.39319 80.5668 7.39319H86.8413C87.0123 7.39319 87.163 7.49753 87.2239 7.65692L91.6146 19.0119L95.559 7.6946C95.6169 7.52941 95.7735 7.41928 95.9473 7.41928H99.8048C99.9874 7.41928 100.115 7.60186 100.048 7.76995C99.144 10.1117 94.0172 23.3765 93.3564 25.0603C92.6319 26.9094 91.4001 29.425 87.8673 29.425C85.8183 29.425 84.4967 28.7381 83.9461 28.3787C83.7751 28.2657 83.7113 28.0454 83.7983 27.8599L85.0561 25.1618C85.1082 25.0487 85.2474 25.0053 85.3546 25.0719C85.714 25.2922 86.5341 25.7211 87.4876 25.7211C88.8903 25.7211 89.5163 24.0634 89.5163 24.0634L84.1374 11.2101H80.5958V23.9445C80.5958 24.1706 80.4132 24.3561 80.1843 24.3561H76.7123C76.4863 24.3561 76.3008 24.1706 76.3008 23.9445L76.3124 11.2101Z" fill="#8C8A97"/>
<path d="M102.158 8.56696H103.442C103.799 8.56696 104.074 8.6684 104.259 8.85099C104.416 9.00749 104.5 9.22774 104.5 9.49148V9.50017C104.5 9.95228 104.256 10.2363 103.9 10.3696L104.584 11.3724H103.862L103.262 10.4739H103.254H102.776V11.3724H102.158V8.56696ZM103.402 9.92909C103.703 9.92909 103.874 9.7697 103.874 9.53205V9.52336C103.874 9.25962 103.688 9.12341 103.39 9.12341H102.776V9.92909H103.402Z" fill="#8C8A97"/>
<path d="M103.278 12.6824C101.817 12.6824 100.629 11.4941 100.629 10.0334C100.629 8.57278 101.817 7.38454 103.278 7.38454C104.738 7.38454 105.927 8.57278 105.927 10.0334C105.927 11.4941 104.736 12.6824 103.278 12.6824ZM103.278 7.67725C101.977 7.67725 100.919 8.73508 100.919 10.0363C100.919 11.3376 101.977 12.3954 103.278 12.3954C104.579 12.3954 105.637 11.3376 105.637 10.0363C105.637 8.73508 104.576 7.67725 103.278 7.67725Z" fill="#8C8A97"/>
</svg>
